<svg xmlns="http://www.w3.org/2000/svg" width="256" height="256" viewBox="0 0 256 256" version="1.1"><path d="M 117.500 30 C 117.840 30.550, 118.568 31, 119.118 31 C 119.668 31, 119.840 30.550, 119.500 30 C 119.160 29.450, 118.432 29, 117.882 29 C 117.332 29, 117.160 29.450, 117.500 30 M 111.500 32 C 110.181 32.567, 110.011 32.878, 111 32.914 C 111.825 32.945, 113.175 32.533, 114 32 C 115.828 30.819, 114.249 30.819, 111.500 32 M 105.500 37.068 C 103.850 38.125, 102.950 38.989, 103.500 38.988 C 104.050 38.987, 105.850 38.093, 107.500 37 C 109.150 35.907, 110.050 35.043, 109.500 35.080 C 108.950 35.116, 107.150 36.011, 105.500 37.068 M 97.500 41 C 97.840 41.550, 98.316 42, 98.559 42 C 98.802 42, 99 41.550, 99 41 C 99 40.450, 98.523 40, 97.941 40 C 97.359 40, 97.160 40.450, 97.500 41 M 93.818 43.218 C 94.351 43.751, 95.623 44.011, 96.644 43.794 C 98.019 43.503, 97.767 43.251, 95.674 42.825 C 93.849 42.452, 93.192 42.592, 93.818 43.218 M 129.500 45.178 C 132.800 46.874, 135.862 48.765, 136.304 49.380 C 136.791 50.058, 136.982 49.711, 136.790 48.500 C 136.615 47.400, 136.029 46.481, 135.486 46.458 C 134.944 46.435, 132.305 45.422, 129.623 44.208 C 122.574 41.017, 122.503 41.584, 129.500 45.178 M 164.500 43 C 164.160 43.550, 164.332 44, 164.882 44 C 165.432 44, 166.160 43.550, 166.500 43 C 166.840 42.450, 166.668 42, 166.118 42 C 165.568 42, 164.840 42.450, 164.500 43 M 85.750 44.662 C 86.438 44.940, 87.563 44.940, 88.250 44.662 C 88.938 44.385, 88.375 44.158, 87 44.158 C 85.625 44.158, 85.063 44.385, 85.750 44.662 M 185 50.059 C 185 50.641, 185.450 50.840, 186 50.500 C 186.550 50.160, 187 49.684, 187 49.441 C 187 49.198, 186.550 49, 186 49 C 185.450 49, 185 49.477, 185 50.059 M 128.615 52.923 C 131.978 54.480, 135.042 56.259, 135.424 56.877 C 136.238 58.195, 138 58.380, 138 57.148 C 138 56.269, 125.058 49.964, 123.420 50.046 C 122.914 50.071, 125.252 51.366, 128.615 52.923 M 78.750 54.689 C 77.787 54.941, 77 55.579, 77 56.109 C 77 56.688, 77.795 56.645, 79 56 C 80.100 55.411, 81 54.720, 81 54.465 C 81 54.209, 80.888 54.052, 80.750 54.116 C 80.612 54.180, 79.713 54.438, 78.750 54.689 M 124.500 55.727 C 123.400 56, 122.155 56.821, 121.733 57.553 C 121.311 58.284, 118.883 59.195, 116.336 59.577 C 113.790 59.959, 110.535 60.882, 109.103 61.629 C 107.671 62.376, 105.773 62.990, 104.885 62.994 C 103.997 62.997, 102.197 63.814, 100.885 64.809 C 96.965 67.783, 90.989 71, 89.384 71 C 88.558 71, 88.160 71.450, 88.500 72 C 88.840 72.550, 88.443 73, 87.618 73 C 86.793 73, 85.865 73.409, 85.556 73.910 C 84.774 75.175, 85.983 78, 87.307 78 C 88.091 78, 88.088 77.688, 87.296 76.896 C 85.962 75.562, 95.659 70.117, 100.339 69.572 C 101.980 69.381, 104.037 68.346, 104.911 67.272 C 106.619 65.173, 110.400 63.529, 116 62.451 C 117.925 62.081, 120.293 61.078, 121.262 60.223 C 122.408 59.212, 125.121 58.639, 129.027 58.584 C 133.508 58.521, 134.456 58.284, 132.765 57.647 C 131.519 57.178, 129.719 56.391, 128.764 55.897 C 127.809 55.404, 126.909 55.052, 126.764 55.116 C 126.619 55.180, 125.600 55.455, 124.500 55.727 M 139.015 56.715 C 139 58.859, 142.565 61.768, 143.752 60.581 C 144.072 60.261, 143.808 60, 143.167 60 C 142.525 60, 142 59.561, 142 59.025 C 142 58.398, 142.893 58.389, 144.500 59 C 145.875 59.523, 147 59.647, 147 59.275 C 147 58.904, 147.540 59.140, 148.200 59.800 C 148.860 60.460, 150.612 61, 152.093 61 C 153.574 61, 155.016 61.600, 155.298 62.333 C 155.579 63.066, 158.286 64.445, 161.312 65.397 C 166.454 67.014, 176.896 74.018, 179.772 77.779 C 180.472 78.694, 180.823 80.018, 180.553 80.721 C 179.782 82.732, 181.580 82.225, 184.784 79.528 C 186.400 78.168, 187.908 77.241, 188.135 77.468 C 188.362 77.695, 189.032 76.333, 189.625 74.441 C 190.217 72.548, 190.550 71, 190.365 71 C 190.180 71, 188.860 72.766, 187.431 74.925 C 186.002 77.084, 184.137 79.117, 183.286 79.444 C 181.986 79.943, 181.833 79.354, 182.332 75.769 C 182.770 72.619, 182.682 72.090, 181.995 73.750 C 180.911 76.370, 179.468 76.663, 178.614 74.437 C 178.284 73.577, 177.673 73.080, 177.257 73.332 C 176.212 73.965, 173.957 71.377, 174.810 70.523 C 175.190 70.144, 175.050 69.980, 174.500 70.159 C 173.320 70.543, 168.792 67.541, 169.494 66.840 C 169.758 66.575, 168.406 65.610, 166.487 64.695 C 164.100 63.557, 163 63.402, 163 64.205 C 163 64.850, 162.082 64.392, 160.961 63.189 C 159.840 61.985, 158.349 61, 157.650 61 C 156.950 61, 155.416 60.105, 154.241 59.010 C 153.067 57.916, 151.845 57.442, 151.527 57.957 C 151.183 58.513, 149.291 58.308, 146.868 57.453 C 144.623 56.661, 142.335 56.293, 141.782 56.635 C 141.229 56.977, 140.384 56.636, 139.904 55.878 C 139.253 54.851, 139.027 55.065, 139.015 56.715 M 67.539 63 C 71.737 67.654, 73.163 68.585, 76.813 69.053 C 79.185 69.357, 81.313 69.302, 81.543 68.931 C 81.772 68.559, 79.898 68.023, 77.377 67.739 C 73.611 67.315, 71.884 66.356, 67.686 62.361 L 62.578 57.500 67.539 63 M 146.500 61 C 146.160 61.550, 146.359 62, 146.941 62 C 147.523 62, 148 61.550, 148 61 C 148 60.450, 147.802 60, 147.559 60 C 147.316 60, 146.840 60.450, 146.500 61 M 193.175 64.250 C 193.079 66.313, 192.757 68, 192.460 68 C 192.163 68, 190.251 67.164, 188.210 66.142 C 186.170 65.120, 183.262 63.986, 181.750 63.623 C 179.535 63.090, 179.003 63.306, 179.015 64.731 C 179.025 65.842, 179.304 66.081, 179.765 65.374 C 180.281 64.583, 182.580 65.084, 187.482 67.054 C 191.927 68.840, 194.868 69.525, 195.574 68.939 C 196.185 68.432, 197.093 68.351, 197.592 68.759 C 198.091 69.166, 198.162 69.087, 197.748 68.581 C 197.334 68.076, 197.777 66.726, 198.732 65.581 C 199.687 64.437, 199.042 64.794, 197.298 66.376 L 194.127 69.252 193.738 64.876 C 193.359 60.603, 193.345 60.588, 193.175 64.250 M 45.632 67.214 C 45.900 67.646, 46.766 68, 47.559 68 C 48.352 68, 49 67.646, 49 67.214 C 49 66.782, 48.133 66.429, 47.073 66.429 C 46.014 66.429, 45.365 66.782, 45.632 67.214 M 101.603 66.833 C 101.320 67.292, 101.723 67.667, 102.500 67.667 C 103.277 67.667, 103.680 67.292, 103.397 66.833 C 103.114 66.375, 102.710 66, 102.500 66 C 102.290 66, 101.886 66.375, 101.603 66.833 M 180.731 67.920 C 180.296 69.583, 180.426 69.974, 181.168 69.232 C 181.750 68.650, 182.028 67.585, 181.788 66.863 C 181.538 66.114, 181.085 66.568, 180.731 67.920 M 202 68 C 201.099 68.582, 200.975 68.975, 201.691 68.985 C 202.346 68.993, 203.160 68.550, 203.500 68 C 204.267 66.758, 203.921 66.758, 202 68 M 66.750 68.662 C 67.438 68.940, 68.563 68.940, 69.250 68.662 C 69.938 68.385, 69.375 68.158, 68 68.158 C 66.625 68.158, 66.063 68.385, 66.750 68.662 M 76.374 73.183 C 77.818 75.209, 79 77.331, 79 77.898 C 79 79.779, 83.075 81.337, 84.357 79.946 C 85.221 79.009, 85.202 78.875, 84.277 79.396 C 83.586 79.785, 82.280 79.131, 81.277 77.892 C 80.299 76.685, 78.206 74.303, 76.624 72.599 L 73.748 69.500 76.374 73.183 M 56.886 73.222 C 55.742 75.370, 55.782 75.416, 57.586 74.033 C 58.639 73.226, 59.642 72.484, 59.817 72.383 C 59.991 72.283, 59.676 71.918, 59.117 71.572 C 58.558 71.227, 57.554 71.969, 56.886 73.222 M 192.872 72.750 C 191.629 74.336, 191.664 74.371, 193.250 73.128 C 194.213 72.373, 195 71.585, 195 71.378 C 195 70.555, 194.179 71.084, 192.872 72.750 M 38 76.031 C 38 76.564, 38.675 77, 39.500 77 C 40.325 77, 41 76.823, 41 76.607 C 41 76.391, 40.325 75.955, 39.500 75.638 C 38.675 75.322, 38 75.499, 38 76.031 M 51.750 77.159 C 50.078 78.918, 50.092 79, 52.059 79 C 53.191 79, 53.864 78.588, 53.553 78.085 C 53.242 77.582, 53.531 76.990, 54.195 76.768 C 54.866 76.545, 54.980 76.134, 54.451 75.842 C 53.928 75.553, 52.712 76.146, 51.750 77.159 M 41.638 83.500 C 41.955 84.325, 42.391 85, 42.607 85 C 42.823 85, 43 84.325, 43 83.500 C 43 82.675, 42.564 82, 42.031 82 C 41.499 82, 41.322 82.675, 41.638 83.500 M 44.754 83.833 C 44.482 84.875, 44.804 85.667, 45.500 85.667 C 46.196 85.667, 46.518 84.875, 46.246 83.833 C 45.982 82.825, 45.647 82, 45.500 82 C 45.353 82, 45.018 82.825, 44.754 83.833 M 76 83.577 C 73.506 85.080, 73.506 85.082, 75.874 84.435 C 77.179 84.078, 78.854 83.698, 79.595 83.589 C 81.814 83.263, 82.484 81.997, 80.417 82.035 C 79.362 82.055, 77.375 82.749, 76 83.577 M 183 82.996 C 183 84.209, 185.805 85.529, 186.629 84.705 C 186.927 84.406, 186.233 83.660, 185.086 83.046 C 183.639 82.272, 183 82.257, 183 82.996 M 212.079 84.128 C 212.036 85.023, 212.787 86.373, 213.750 87.128 C 215.271 88.320, 215.354 88.303, 214.384 87 C 213.771 86.175, 213.019 84.825, 212.713 84 C 212.249 82.745, 212.145 82.766, 212.079 84.128 M 37 85 C 37 85.550, 37.477 86, 38.059 86 C 38.641 86, 38.840 85.550, 38.500 85 C 38.160 84.450, 37.684 84, 37.441 84 C 37.198 84, 37 84.450, 37 85 M 72.649 86.528 C 72.989 87.413, 72.200 88.407, 70.570 89.150 C 68.883 89.919, 68.357 90.603, 69.100 91.062 C 69.736 91.455, 69.942 92.284, 69.559 92.905 C 69.176 93.525, 68.413 93.755, 67.864 93.416 C 67.315 93.077, 66.998 93.407, 67.159 94.150 C 67.621 96.280, 63.847 101.879, 62.339 101.300 C 61.603 101.017, 61 101.284, 61 101.893 C 61 102.502, 61.450 103, 62 103 C 62.550 103, 63 103.436, 63 103.969 C 63 104.501, 62.212 104.684, 61.250 104.374 C 60.089 104.001, 59.906 104.106, 60.704 104.686 C 62.306 105.850, 61.961 110.199, 60.317 109.568 C 58.392 108.829, 58.019 110.305, 59.589 112.452 C 60.365 113.514, 61.056 114.071, 61.125 113.691 C 61.194 113.311, 61.313 112.662, 61.390 112.250 C 61.467 111.838, 61.799 111.050, 62.127 110.500 C 62.455 109.950, 63.037 108.150, 63.421 106.500 C 64.239 102.977, 70.040 93, 71.270 93 C 71.737 93, 71.840 93.450, 71.500 94 C 71.160 94.550, 71.359 95, 71.941 95 C 72.523 95, 73 93.515, 73 91.700 C 73 89.885, 73.480 87.920, 74.067 87.333 C 74.824 86.576, 74.693 86.096, 73.618 85.684 C 72.591 85.289, 72.278 85.561, 72.649 86.528 M 216.085 87.841 C 215.527 88.884, 215.313 89.980, 215.610 90.277 C 215.907 90.574, 216.274 91.420, 216.426 92.158 C 216.578 92.896, 217.230 94.625, 217.874 96 L 219.046 98.500 218.527 95.843 C 218.242 94.381, 217.733 92.469, 217.397 91.593 C 217.061 90.717, 217.284 90, 217.893 90 C 219.246 90, 219.366 87.344, 218.050 86.531 C 217.528 86.208, 216.644 86.797, 216.085 87.841 M 216.564 88.707 C 216.022 90.132, 216.136 90.247, 217.124 89.267 C 217.808 88.588, 218.115 87.781, 217.807 87.474 C 217.499 87.166, 216.940 87.721, 216.564 88.707 M 40.118 88.927 C 39.114 89.548, 39.172 89.852, 40.384 90.317 C 41.238 90.645, 42.183 90.513, 42.484 90.025 C 43.273 88.750, 41.635 87.989, 40.118 88.927 M 188.564 89.293 C 188.940 90.279, 189.499 90.834, 189.807 90.526 C 190.115 90.219, 189.808 89.412, 189.124 88.733 C 188.136 87.753, 188.022 87.868, 188.564 89.293 M 36 90 C 35.099 90.582, 34.975 90.975, 35.691 90.985 C 36.346 90.993, 37.160 90.550, 37.500 90 C 38.267 88.758, 37.921 88.758, 36 90 M 31.872 93.750 C 30.629 95.336, 30.664 95.371, 32.250 94.128 C 33.212 93.373, 34 92.585, 34 92.378 C 34 91.555, 33.179 92.084, 31.872 93.750 M 64 93 C 63.099 93.582, 62.975 93.975, 63.691 93.985 C 64.346 93.993, 65.160 93.550, 65.500 93 C 66.267 91.758, 65.921 91.758, 64 93 M 190.079 92.856 C 190.036 93.601, 191.125 95.548, 192.500 97.182 C 193.875 98.816, 195 99.686, 195 99.116 C 195 98.545, 194.162 97.273, 193.137 96.289 C 192.112 95.305, 191.023 93.825, 190.716 93 C 190.304 91.893, 190.137 91.855, 190.079 92.856 M 48.500 94 C 48.840 94.550, 49.316 95, 49.559 95 C 49.802 95, 50 94.550, 50 94 C 50 93.450, 49.523 93, 48.941 93 C 48.359 93, 48.160 93.450, 48.500 94 M 46 99.893 C 46 100.384, 46.739 101.069, 47.641 101.416 C 49.014 101.943, 49.076 101.796, 48.019 100.523 C 46.579 98.788, 46 98.607, 46 99.893 M 218.543 99.931 C 218.226 100.443, 218.425 101.144, 218.984 101.490 C 219.543 101.835, 220 103.441, 220 105.059 C 220 106.931, 220.515 108, 221.418 108 C 222.198 108, 223.548 108.273, 224.418 108.607 C 225.513 109.027, 225.995 108.642, 225.985 107.357 C 225.972 105.827, 225.806 105.758, 225.042 106.966 C 224.291 108.154, 223.934 107.956, 223.162 105.925 C 222.637 104.546, 221.491 102.823, 220.615 102.096 C 219.739 101.368, 219.269 100.374, 219.570 99.887 C 219.871 99.399, 219.893 99, 219.618 99 C 219.343 99, 218.859 99.419, 218.543 99.931 M 193.079 102.583 C 193.127 103.748, 193.364 103.985, 193.683 103.188 C 193.972 102.466, 193.936 101.603, 193.604 101.271 C 193.272 100.939, 193.036 101.529, 193.079 102.583 M 34.564 103.293 C 34.940 104.279, 35.499 104.834, 35.807 104.526 C 36.115 104.219, 35.808 103.412, 35.124 102.733 C 34.136 101.753, 34.022 101.868, 34.564 103.293 M 194.255 108.446 C 194.120 110.339, 194.354 112.101, 194.774 112.360 C 195.194 112.620, 195.584 111.070, 195.641 108.916 C 195.767 104.092, 194.593 103.694, 194.255 108.446 M 34.593 109.383 C 34.967 110.356, 36.363 111.568, 37.697 112.075 C 39.160 112.631, 39.837 113.454, 39.406 114.153 C 38.953 114.885, 39.131 115.037, 39.889 114.568 C 41.173 113.775, 46.564 116.769, 45.595 117.738 C 45.277 118.056, 45.461 118.851, 46.004 119.505 C 46.712 120.357, 44.971 122.291, 39.845 126.347 C 35.916 129.456, 33.059 132, 33.497 132 C 33.935 132, 36.250 130.397, 38.641 128.438 C 41.099 126.424, 43.493 125.187, 44.149 125.592 C 44.844 126.021, 45.040 125.873, 44.638 125.223 C 44.269 124.626, 44.946 123.451, 46.142 122.613 C 47.895 121.385, 48.085 120.807, 47.116 119.640 C 46.098 118.413, 46.459 118.242, 49.470 118.522 C 51.426 118.703, 52.798 118.483, 52.519 118.031 C 51.956 117.119, 54.931 115.545, 56.500 115.925 C 57.050 116.058, 57.169 115.836, 56.766 115.432 C 56.362 115.028, 56.766 114.161, 57.663 113.504 C 59.130 112.432, 59.077 112.253, 57.146 111.749 C 55.964 111.439, 55.231 111.565, 55.517 112.028 C 55.979 112.775, 50.099 118, 48.796 118 C 48.513 118, 46.306 116.429, 43.891 114.510 C 41.476 112.590, 39.085 111.015, 38.579 111.010 C 38.072 111.004, 36.815 110.238, 35.786 109.306 C 34.022 107.710, 33.953 107.714, 34.593 109.383 M 200.617 113.460 C 193.788 118.956, 192.538 121.267, 198.955 116.533 C 200.794 115.176, 202.630 114.272, 203.036 114.522 C 203.442 114.773, 204.329 114.308, 205.009 113.489 C 205.689 112.670, 205.910 112, 205.500 112 C 205.090 112, 205.311 111.330, 205.991 110.511 C 207.355 108.868, 209.432 109.492, 208.362 111.224 C 207.961 111.871, 208.156 112.021, 208.845 111.595 C 209.480 111.203, 210.056 111.359, 210.125 111.941 C 210.194 112.523, 210.327 113.563, 210.420 114.250 C 210.514 114.938, 211.133 115.388, 211.795 115.250 C 212.458 115.112, 213.056 115.450, 213.125 116 C 213.194 116.550, 213.306 117.450, 213.375 118 C 213.444 118.550, 213.950 119.038, 214.500 119.085 C 215.050 119.132, 215.991 119.577, 216.591 120.075 C 217.304 120.668, 218.772 119.622, 220.841 117.049 C 224.937 111.951, 224.933 110.868, 220.834 115.536 L 217.669 119.141 212.584 113.531 L 207.500 107.921 200.617 113.460 M 29 110.833 C 29 111.292, 29.655 111.667, 30.456 111.667 C 31.257 111.667, 31.680 111.292, 31.397 110.833 C 31.114 110.375, 30.459 110, 29.941 110 C 29.423 110, 29 110.375, 29 110.833 M 194.079 115.583 C 194.127 116.748, 194.364 116.985, 194.683 116.188 C 194.972 115.466, 194.936 114.603, 194.604 114.271 C 194.272 113.939, 194.036 114.529, 194.079 115.583 M 60 115.882 C 60 116.432, 60.450 117.160, 61 117.500 C 61.550 117.840, 62 117.668, 62 117.118 C 62 116.568, 61.550 115.840, 61 115.500 C 60.450 115.160, 60 115.332, 60 115.882 M 227.813 118.683 C 228.534 118.972, 229.397 118.936, 229.729 118.604 C 230.061 118.272, 229.471 118.036, 228.417 118.079 C 227.252 118.127, 227.015 118.364, 227.813 118.683 M 222 121.622 C 222 123.840, 221.768 124.053, 220.500 123 C 219.675 122.315, 219 122.051, 219 122.413 C 219 122.774, 218.046 122.560, 216.879 121.935 C 215.713 121.311, 215.019 121.222, 215.338 121.738 C 215.656 122.253, 214.239 124.313, 212.189 126.316 L 208.460 129.957 203.980 125.923 C 198.013 120.550, 194.523 118.720, 198.768 123.190 C 200.565 125.083, 201.690 127.012, 201.268 127.476 C 200.845 127.941, 201.091 127.979, 201.813 127.562 C 203.191 126.767, 207.288 129.725, 206.523 130.963 C 206.286 131.346, 206.955 131.595, 208.010 131.518 C 210.277 131.351, 214.167 128.080, 213.460 126.935 C 213.188 126.496, 213.944 125.452, 215.138 124.616 C 216.719 123.509, 217.819 123.368, 219.183 124.098 C 220.213 124.649, 220.838 125.453, 220.572 125.884 C 220.306 126.314, 220.631 126.666, 221.294 126.666 C 221.978 126.666, 222.619 125.006, 222.774 122.833 C 222.925 120.725, 222.812 119, 222.524 119 C 222.236 119, 222 120.180, 222 121.622 M 50.261 121.818 C 50.340 122.859, 51.100 123.663, 51.952 123.605 C 52.838 123.545, 53.358 124.141, 53.167 125 C 52.983 125.825, 53.170 126.163, 53.582 125.752 C 53.993 125.340, 56.248 126.128, 58.593 127.502 C 63.802 130.554, 64.029 130.565, 63.884 127.750 C 63.799 126.092, 63.649 125.955, 63.315 127.228 C 62.889 128.852, 62.701 128.855, 60.181 127.276 C 58.706 126.352, 55.839 124.321, 53.809 122.761 C 50.568 120.271, 50.136 120.156, 50.261 121.818 M 192.399 121.250 C 192.003 121.938, 192.048 122.166, 192.498 121.759 C 192.948 121.351, 194.032 121.576, 194.908 122.259 C 196.317 123.357, 196.342 123.298, 195.128 121.750 C 193.492 119.664, 193.328 119.634, 192.399 121.250 M 193 125.941 C 193 126.459, 193.445 127.157, 193.989 127.493 C 194.555 127.843, 194.723 127.442, 194.382 126.552 C 193.717 124.820, 193 124.503, 193 125.941 M 210.405 129.250 L 208.500 131.500 210.750 129.595 C 212.864 127.805, 213.455 127, 212.655 127 C 212.465 127, 211.453 128.012, 210.405 129.250 M 40.559 129.532 C 39.491 130.339, 39.099 131, 39.686 131 C 40.274 131, 41.315 130.325, 42 129.500 C 43.557 127.624, 43.067 127.634, 40.559 129.532 M 221 130 C 221 130.550, 221.477 131, 222.059 131 C 222.641 131, 222.840 130.550, 222.500 130 C 222.160 129.450, 221.684 129, 221.441 129 C 221.198 129, 221 129.450, 221 130 M 192 130.378 C 192 130.585, 192.787 131.373, 193.750 132.128 C 195.336 133.371, 195.371 133.336, 194.128 131.750 C 192.821 130.084, 192 129.555, 192 130.378 M 36.029 132.961 C 35.220 133.473, 34.818 134.152, 35.136 134.470 C 35.455 134.788, 36.284 134.362, 36.980 133.524 C 38.423 131.786, 38.146 131.622, 36.029 132.961 M 220.813 132.683 C 221.534 132.972, 222.397 132.936, 222.729 132.604 C 223.061 132.272, 222.471 132.036, 221.417 132.079 C 220.252 132.127, 220.015 132.364, 220.813 132.683 M 41 136 C 41 136.550, 41.477 137, 42.059 137 C 42.641 137, 42.840 136.550, 42.500 136 C 42.160 135.450, 41.684 135, 41.441 135 C 41.198 135, 41 135.450, 41 136 M 222.733 136.124 C 223.412 136.808, 224.219 137.115, 224.526 136.807 C 224.834 136.499, 224.279 135.940, 223.293 135.564 C 221.868 135.022, 221.753 135.136, 222.733 136.124 M 37.108 140.711 C 38.149 142.753, 39 145.363, 39 146.511 C 39 147.660, 39.469 149.069, 40.042 149.642 C 40.766 150.366, 40.612 151.077, 39.542 151.965 C 38.260 153.029, 38 152.971, 38 151.622 C 38 150.730, 37.592 150, 37.094 150 C 36.595 150, 36.423 150.900, 36.710 152 C 37.247 154.054, 40 154.841, 40 152.941 C 40 152.359, 40.450 152.160, 41 152.500 C 41.550 152.840, 42 152.218, 42 151.118 C 42 150.018, 41.511 148.816, 40.913 148.446 C 40.315 148.077, 40.028 147.002, 40.275 146.058 C 40.521 145.114, 40.111 143.504, 39.362 142.480 C 38.613 141.456, 38 139.804, 38 138.809 C 38 137.814, 37.374 137, 36.608 137 C 35.508 137, 35.613 137.780, 37.108 140.711 M 217.459 138.067 C 217.096 138.653, 217.070 139.403, 217.400 139.733 C 217.730 140.063, 218 139.822, 218 139.198 C 218 138.550, 218.714 138.337, 219.664 138.701 C 220.783 139.131, 221.091 138.957, 220.605 138.170 C 219.703 136.711, 218.325 136.666, 217.459 138.067 M 223.733 140.124 C 224.412 140.808, 225.219 141.115, 225.526 140.807 C 225.834 140.499, 225.279 139.940, 224.293 139.564 C 222.868 139.022, 222.753 139.136, 223.733 140.124 M 215.667 141.667 C 214.609 142.724, 214.886 143.742, 216.387 144.318 C 217.360 144.692, 217.623 144.276, 217.270 142.925 C 216.711 140.786, 216.619 140.714, 215.667 141.667 M 42.454 147.462 C 42.629 149.091, 43.225 150.575, 43.780 150.760 C 44.334 150.945, 44.559 151.969, 44.280 153.037 C 44.001 154.104, 43.455 154.781, 43.067 154.542 C 42.679 154.302, 42.557 155.432, 42.794 157.053 C 43.220 159.955, 41.652 161.203, 40.662 158.750 C 40.299 157.849, 40.136 157.832, 40.079 158.691 C 39.953 160.586, 41.950 161.286, 43.593 159.923 C 44.882 158.853, 45.029 159.056, 44.615 161.337 C 44.263 163.278, 44.550 164, 45.673 164 C 46.592 164, 46.994 164.572, 46.670 165.417 C 46.221 166.587, 47.818 168, 49.590 168 C 50.026 168, 47.905 163.905, 47 163 C 46.032 162.032, 45.878 158.807, 46.828 159.394 C 47.357 159.721, 48.057 159.293, 48.384 158.442 C 48.724 157.557, 48.555 157.157, 47.989 157.507 C 47.445 157.843, 47 157.679, 47 157.142 C 47 156.606, 47.563 155.940, 48.250 155.662 C 49.250 155.259, 49.250 155.142, 48.250 155.079 C 47.535 155.034, 47 153.670, 47 151.893 C 47 149.496, 46.645 148.922, 45.448 149.382 C 44.594 149.709, 44.130 149.599, 44.416 149.136 C 44.702 148.673, 44.306 147.441, 43.537 146.397 C 42.236 144.634, 42.160 144.709, 42.454 147.462 M 213.370 147.210 C 213.072 147.693, 213.340 148.705, 213.967 149.460 C 214.854 150.529, 214.689 150.964, 213.219 151.430 C 212.035 151.806, 211.279 153.046, 211.188 154.764 C 210.837 161.374, 210.461 162.500, 208.662 162.350 C 207.617 162.262, 207.059 162.711, 207.331 163.421 C 207.589 164.094, 206.906 165.202, 205.813 165.885 C 204.063 166.978, 203.896 166.903, 204.417 165.261 C 204.743 164.235, 204.355 162.519, 203.554 161.448 C 202.161 159.583, 202.125 159.602, 202.707 161.906 C 203.172 163.745, 203.001 164.119, 201.985 163.491 C 201.150 162.975, 201.278 163.559, 202.327 165.057 C 204.085 167.567, 204.552 169.459, 203.208 168.628 C 202.772 168.359, 202.346 169.058, 202.261 170.182 C 202.072 172.688, 197.009 177.941, 195.383 177.317 C 194.734 177.068, 193.925 177.312, 193.587 177.860 C 193.248 178.408, 193.828 179.128, 194.876 179.461 C 197.001 180.135, 202.609 175.269, 203.191 172.246 C 203.376 171.285, 204.046 170.500, 204.680 170.500 C 205.314 170.500, 206.208 170.090, 206.667 169.590 C 207.151 169.061, 206.976 168.981, 206.250 169.399 C 204.128 170.620, 204.852 169.273, 208.396 165.404 C 210.497 163.111, 212.028 160.229, 212.408 157.848 C 212.802 155.383, 213.559 154, 214.512 154 C 215.333 154, 216 153.104, 216 152 C 216 150.900, 216.450 150, 217 150 C 217.550 150, 218 149.523, 218 148.941 C 218 148.359, 217.474 148.207, 216.830 148.605 C 216.070 149.075, 215.861 148.804, 216.235 147.831 C 216.851 146.225, 214.318 145.676, 213.370 147.210 M 183.507 152.989 C 183.157 153.555, 183.558 153.723, 184.448 153.382 C 186.180 152.717, 186.497 152, 185.059 152 C 184.541 152, 183.843 152.445, 183.507 152.989 M 44.468 155.101 C 44.101 156.256, 44.221 157.621, 44.734 158.134 C 45.311 158.711, 45.667 157.910, 45.667 156.033 C 45.667 152.460, 45.378 152.235, 44.468 155.101 M 191.158 154.881 C 190.173 155.506, 190.480 155.859, 192.317 156.210 C 194.125 156.555, 194.675 156.316, 194.302 155.344 C 193.707 153.793, 193.032 153.694, 191.158 154.881 M 185 159.274 C 185 159.791, 184.325 159.955, 183.500 159.638 C 182.675 159.322, 182 159.499, 182 160.031 C 182 161.416, 184.308 161.227, 186.441 159.667 C 188.021 158.512, 188.046 158.333, 186.632 158.333 C 185.735 158.333, 185 158.756, 185 159.274 M 215.733 162.124 C 216.412 162.808, 217.219 163.115, 217.526 162.807 C 217.834 162.499, 217.279 161.940, 216.293 161.564 C 214.868 161.022, 214.753 161.136, 215.733 162.124 M 79.833 163.750 C 79.650 164.162, 77.700 165.828, 75.500 167.452 C 73.300 169.076, 70.375 171.450, 69 172.728 C 61.687 179.524, 56 184.166, 56 183.337 C 56 182.822, 56.482 181.918, 57.070 181.330 C 57.830 180.570, 57.416 180.339, 55.638 180.534 C 53.835 180.732, 53.287 180.417, 53.675 179.404 C 53.971 178.632, 53.668 178, 53 178 C 52.332 178, 52.045 177.326, 52.362 176.500 C 52.678 175.675, 52.442 175, 51.838 175 C 50.065 175, 51.669 182.043, 53.918 184.139 C 55.874 185.960, 55.968 185.950, 58.209 183.655 C 59.469 182.365, 65 177.562, 70.500 172.982 C 76 168.402, 80.650 164.282, 80.833 163.827 C 81.249 162.796, 80.290 162.722, 79.833 163.750 M 215 166.500 C 215 167.417, 215.484 168.005, 216.075 167.808 C 216.666 167.611, 217.150 167.022, 217.150 166.500 C 217.150 165.978, 216.666 165.389, 216.075 165.192 C 215.484 164.995, 215 165.583, 215 166.500 M 42.500 167 C 42.160 167.550, 42.359 168, 42.941 168 C 43.523 168, 44 167.550, 44 167 C 44 166.450, 43.802 166, 43.559 166 C 43.316 166, 42.840 166.450, 42.500 167 M 60 168.059 C 60 168.641, 60.450 168.840, 61 168.500 C 61.550 168.160, 62 167.684, 62 167.441 C 62 167.198, 61.550 167, 61 167 C 60.450 167, 60 167.477, 60 168.059 M 207 167.941 C 207 168.459, 207.450 169.160, 208 169.500 C 208.550 169.840, 209 169.416, 209 168.559 C 209 167.702, 208.550 167, 208 167 C 207.450 167, 207 167.423, 207 167.941 M 43.573 168.974 C 41.671 169.642, 41.671 169.661, 43.573 170.479 C 44.633 170.935, 46.337 171.202, 47.359 171.072 C 48.382 170.943, 48.950 171.272, 48.621 171.804 C 48.292 172.336, 49.161 172.989, 50.551 173.255 C 53.220 173.765, 53.495 172.158, 50.940 170.977 C 50.148 170.611, 48.600 169.858, 47.500 169.304 C 46.400 168.750, 44.633 168.602, 43.573 168.974 M 80 172.941 C 80 173.459, 80.445 174.157, 80.989 174.493 C 81.555 174.843, 81.723 174.442, 81.382 173.552 C 80.717 171.820, 80 171.503, 80 172.941 M 194 173.378 C 194 173.585, 194.761 174.373, 195.692 175.128 C 196.623 175.882, 197.070 175.976, 196.686 175.335 C 196.302 174.695, 196.553 173.943, 197.244 173.664 C 197.935 173.386, 197.488 173.122, 196.250 173.079 C 195.012 173.036, 194 173.170, 194 173.378 M 166.603 174.833 C 166.320 175.292, 166.723 175.667, 167.500 175.667 C 168.277 175.667, 168.680 175.292, 168.397 174.833 C 168.114 174.375, 167.710 174, 167.500 174 C 167.290 174, 166.886 174.375, 166.603 174.833 M 176.160 176.775 C 176.028 179.477, 176.481 180.249, 178.750 181.190 C 180.262 181.817, 183.863 182.215, 186.750 182.073 C 195.806 181.628, 192.568 184.582, 183.319 185.202 C 181.570 185.319, 180.383 185.811, 180.682 186.295 C 180.981 186.778, 182.075 186.952, 183.113 186.681 C 184.151 186.409, 185 186.595, 185 187.094 C 185 187.592, 183.740 188, 182.200 188 C 180.660 188, 178.843 188.557, 178.162 189.238 C 176.823 190.577, 176.610 190.620, 170.227 190.848 L 165.954 191 167.592 193.500 C 169.204 195.960, 169.186 196, 166.448 196 C 161.286 196, 164.691 197.073, 170.370 197.236 C 173.467 197.324, 176 197.758, 176 198.199 C 176 198.639, 176.955 199, 178.122 199 C 179.896 199, 180.040 198.753, 179 197.500 C 178.079 196.390, 178.045 195.651, 178.869 194.658 C 179.481 193.920, 179.687 193.020, 179.325 192.658 C 178.963 192.296, 179.604 192, 180.750 192 C 181.896 192, 182.983 191.662, 183.167 191.250 C 183.651 190.161, 190.188 185.468, 192.313 184.683 C 193.311 184.315, 193.847 183.561, 193.504 183.007 C 193.162 182.453, 193.696 181.986, 194.691 181.968 C 196.435 181.938, 196.435 181.887, 194.693 180.567 C 193.361 179.557, 190.821 179.339, 185.017 179.736 L 177.147 180.276 176.734 176.888 L 176.320 173.500 176.160 176.775 M 74.070 179.691 C 74.032 180.896, 74.450 182.160, 75 182.500 C 76.183 183.231, 76.183 182.252, 75 179.500 C 74.171 177.572, 74.138 177.579, 74.070 179.691 M 93.418 178.758 C 93.862 179.546, 93.292 180.326, 91.893 180.844 C 90.664 181.299, 90.077 181.930, 90.590 182.247 C 91.103 182.563, 92.393 182.186, 93.457 181.408 C 95.064 180.233, 95.165 179.781, 94.050 178.746 C 92.976 177.750, 92.849 177.753, 93.418 178.758 M 174.079 180.583 C 174.127 181.748, 174.364 181.985, 174.683 181.188 C 174.972 180.466, 174.936 179.603, 174.604 179.271 C 174.272 178.939, 174.036 179.529, 174.079 180.583 M 154.707 182.678 C 155.074 183.635, 154.695 183.820, 153.394 183.321 C 151.785 182.703, 151.738 182.804, 153.004 184.160 C 154.172 185.410, 154.684 185.459, 155.722 184.421 C 157.404 182.739, 157.347 181.333, 155.595 181.333 C 154.823 181.333, 154.423 181.938, 154.707 182.678 M 197.500 182 C 197.160 182.550, 197.359 183, 197.941 183 C 198.523 183, 199 182.550, 199 182 C 199 181.450, 198.802 181, 198.559 181 C 198.316 181, 197.840 181.450, 197.500 182 M 149.250 183.662 C 147.820 184.239, 147.551 186, 148.893 186 C 149.384 186, 150.045 185.325, 150.362 184.500 C 150.678 183.675, 150.839 183.036, 150.719 183.079 C 150.598 183.122, 149.938 183.385, 149.250 183.662 M 159 184.559 C 159 185.416, 159.457 185.835, 160.016 185.490 C 160.575 185.144, 160.774 184.443, 160.457 183.931 C 159.600 182.544, 159 182.802, 159 184.559 M 59.732 185.425 C 58.229 185.954, 57 186.738, 57 187.168 C 57 187.599, 58.090 187.536, 59.423 187.029 C 61.234 186.341, 62.169 186.499, 63.131 187.658 C 63.839 188.511, 65.500 189.620, 66.822 190.122 C 68.708 190.839, 69.122 191.581, 68.744 193.560 C 68.360 195.565, 68.841 196.383, 71.081 197.542 C 74.331 199.223, 76.392 199.443, 75.510 198.016 C 75.175 197.475, 73.520 196.674, 71.833 196.236 C 69.373 195.599, 69.035 195.218, 70.132 194.318 C 71.167 193.469, 72.352 193.652, 75 195.070 C 76.925 196.102, 79.273 197.231, 80.217 197.581 C 81.161 197.930, 82.214 199.100, 82.557 200.180 C 82.958 201.442, 83.736 201.932, 84.732 201.549 C 85.922 201.093, 86.029 201.260, 85.192 202.268 C 84.374 203.254, 84.562 203.870, 85.943 204.732 C 88.074 206.063, 89 205.460, 89 202.740 C 89 201.636, 88.121 200.583, 86.943 200.275 C 85.657 199.939, 85.096 199.193, 85.444 198.285 C 85.785 197.396, 85.516 197.010, 84.751 197.289 C 84.063 197.540, 82.150 196.749, 80.500 195.531 C 78.850 194.313, 76.345 193.033, 74.934 192.686 C 73.523 192.339, 71.317 191.142, 70.031 190.027 C 68.746 188.912, 67.313 188, 66.847 188 C 66.381 188, 65.204 187.204, 64.232 186.232 C 62.833 184.833, 61.894 184.665, 59.732 185.425 M 177.500 186 C 177.160 186.550, 176.009 187, 174.941 187 C 173.873 187, 173 187.450, 173 188 C 173 188.550, 173.675 189, 174.500 189 C 175.325 189, 176.338 189, 176.750 189 C 177.162 189, 177.507 188.662, 177.515 188.250 C 177.524 187.838, 177.888 186.938, 178.324 186.250 C 178.761 185.563, 178.893 185, 178.618 185 C 178.343 185, 177.840 185.450, 177.500 186 M 141.651 186.771 C 140.045 187.130, 140.138 187.359, 142.357 188.510 C 145.195 189.982, 148.207 189.878, 148.737 188.290 C 148.926 187.721, 148.163 187.014, 147.040 186.721 C 145.664 186.361, 145.224 186.564, 145.691 187.343 C 146.198 188.190, 145.998 188.213, 144.942 187.429 C 144.149 186.840, 142.668 186.544, 141.651 186.771 M 98 187.393 C 98 187.609, 98.698 188.054, 99.552 188.382 C 100.442 188.723, 100.843 188.555, 100.493 187.989 C 99.906 187.038, 98 186.583, 98 187.393 M 124.568 189.317 C 125.060 190.599, 124.823 190.869, 123.611 190.404 C 122.725 190.064, 122 190.209, 122 190.726 C 122 191.244, 122.563 191.715, 123.250 191.775 C 127.337 192.128, 130.306 193.696, 129.464 195.058 C 129.152 195.563, 129.613 195.702, 130.489 195.366 C 131.506 194.976, 131.977 195.234, 131.791 196.082 C 131.631 196.812, 131.950 197.436, 132.500 197.470 C 133.914 197.556, 136 198.979, 136 199.858 C 136 200.265, 134.537 201.099, 132.750 201.712 C 125.426 204.222, 125.177 204.225, 124.711 201.794 C 124.308 199.688, 124.261 199.716, 124.136 202.133 C 124.040 203.994, 124.587 204.920, 126.001 205.290 C 127.250 205.617, 127.758 205.417, 127.352 204.761 C 126.922 204.065, 127.627 203.940, 129.435 204.394 C 131.369 204.880, 131.960 204.745, 131.459 203.933 C 130.963 203.131, 131.427 203.001, 133 203.500 C 134.533 203.987, 135.032 203.861, 134.566 203.107 C 133.966 202.135, 135.862 201.504, 138.250 201.882 C 140.283 202.203, 138.516 199.745, 134.250 196.317 C 131.637 194.218, 129.275 192.275, 129 192 C 128.725 191.725, 127.468 190.625, 126.207 189.556 C 124.237 187.886, 124.006 187.853, 124.568 189.317 M 132.500 190.536 C 129.999 191.682, 129.854 191.917, 131.628 191.955 C 132.798 191.980, 134.315 191.325, 135 190.500 C 136.458 188.743, 136.415 188.744, 132.500 190.536 M 140.527 190.956 C 140.202 191.482, 139.163 191.641, 138.218 191.309 C 137.083 190.911, 136.840 191.040, 137.500 191.691 C 138.681 192.856, 151.991 195.342, 152.786 194.547 C 153.087 194.246, 152.406 194, 151.274 194 C 150.141 194, 148.955 193.325, 148.638 192.500 C 148.322 191.675, 147.486 191.007, 146.781 191.015 C 145.872 191.026, 145.935 191.341, 147 192.102 C 148.176 192.942, 147.960 193.050, 146 192.600 C 144.625 192.285, 142.911 192.021, 142.191 192.014 C 141.471 192.006, 141.160 191.550, 141.500 191 C 141.840 190.450, 141.893 190, 141.618 190 C 141.343 190, 140.852 190.430, 140.527 190.956 M 158.500 190.681 C 159.600 190.984, 160.872 191.742, 161.326 192.366 C 161.872 193.115, 162.015 192.991, 161.748 192 C 161.525 191.175, 160.254 190.417, 158.922 190.315 C 157.012 190.170, 156.923 190.247, 158.500 190.681 M 155.399 191.750 C 155.794 192.438, 155.716 193, 155.226 193 C 154.735 193, 154.333 193.632, 154.333 194.405 C 154.333 195.177, 154.889 195.596, 155.568 195.336 C 156.916 194.818, 156.897 192.518, 155.535 191.279 C 155.065 190.851, 155.003 191.063, 155.399 191.750 M 123.787 196 C 123.545 197.650, 123.718 199, 124.173 199 C 124.628 199, 125 197.650, 125 196 C 125 194.350, 124.826 193, 124.613 193 C 124.401 193, 124.029 194.350, 123.787 196 M 159 194.393 C 159 194.609, 159.675 195.045, 160.500 195.362 C 161.325 195.678, 162 195.501, 162 194.969 C 162 194.436, 161.325 194, 160.500 194 C 159.675 194, 159 194.177, 159 194.393 M 190.768 196.168 C 191.350 196.750, 192.415 197.028, 193.137 196.788 C 193.886 196.538, 193.432 196.085, 192.080 195.731 C 190.417 195.296, 190.026 195.426, 190.768 196.168 M 200.014 196.414 C 200.662 197.062, 201.338 197.062, 201.986 196.414 C 202.633 195.767, 202.295 195.429, 201 195.429 C 199.705 195.429, 199.367 195.767, 200.014 196.414 M 8 197.883 C 8 198.369, 9.012 199.092, 10.250 199.489 C 12.156 200.101, 12.232 200.284, 10.750 200.679 C 8.266 201.343, 8.581 202.488, 11.629 203.877 C 13.075 204.536, 13.986 205.347, 13.653 205.680 C 13.321 206.013, 12.352 205.707, 11.500 205 C 9.756 203.552, 8.419 204.251, 9.521 206.034 C 9.936 206.706, 11.403 206.969, 12.975 206.655 C 14.479 206.354, 16.111 206.475, 16.604 206.923 C 17.097 207.371, 19.750 208.555, 22.500 209.555 C 25.250 210.555, 28.583 212.198, 29.907 213.204 C 31.272 214.243, 33.112 214.782, 34.157 214.450 C 35.413 214.052, 36 214.365, 36 215.433 C 36 216.433, 36.894 217, 38.469 217 C 40.154 217, 40.770 217.437, 40.409 218.377 C 39.987 219.476, 40.697 219.604, 43.940 219.011 C 46.173 218.603, 48.004 218.546, 48.008 218.884 C 48.024 220.127, 52.895 221.814, 53.265 220.705 C 53.488 220.037, 54.344 219.958, 55.560 220.491 C 56.627 220.959, 59.750 221.497, 62.500 221.686 C 69.842 222.192, 72.283 222.561, 74.378 223.485 C 75.450 223.957, 78.240 223.828, 80.878 223.184 C 83.420 222.563, 87.626 222.129, 90.224 222.220 C 92.822 222.311, 95.212 222.121, 95.535 221.798 C 95.858 221.475, 98.130 221.421, 100.585 221.676 C 103.743 222.005, 104.967 221.789, 104.774 220.935 C 104.610 220.213, 105.897 219.607, 107.980 219.425 C 109.894 219.258, 111.617 218.648, 111.810 218.069 C 112.021 217.438, 112.770 217.627, 113.686 218.543 C 114.823 219.680, 115.551 219.787, 116.542 218.965 C 117.992 217.762, 121.523 219.069, 122.185 221.054 C 122.394 221.681, 123.527 221.277, 124.901 220.086 C 126.197 218.962, 127.619 218.265, 128.060 218.537 C 128.501 218.810, 129.144 218.575, 129.490 218.016 C 130.374 216.585, 133.744 216.750, 134.280 218.250 C 134.525 218.938, 135.077 219.173, 135.506 218.774 C 136.882 217.493, 134.104 215.307, 130.986 215.219 C 129.324 215.171, 128.223 215.552, 128.539 216.063 C 128.888 216.627, 128.131 216.620, 126.619 216.045 C 124.379 215.193, 124.081 215.373, 123.712 217.798 C 123.453 219.495, 123.193 218.641, 123.014 215.500 C 122.856 212.750, 122.533 211.512, 122.294 212.750 C 121.790 215.370, 119.806 215.676, 117.937 213.424 C 116.988 212.281, 115.695 212.022, 113.237 212.483 C 110.562 212.985, 109.175 212.609, 106.673 210.704 C 104.928 209.375, 102.487 207.968, 101.250 207.576 C 100.013 207.185, 99 206.371, 99 205.766 C 99 205.161, 98.716 204.951, 98.369 205.298 C 98.021 205.645, 96.784 205.400, 95.619 204.752 C 94.453 204.105, 93.162 203.671, 92.750 203.788 C 92.337 203.904, 92 203.550, 92 203 C 92 202.450, 91.550 202, 91 202 C 89.531 202, 89.778 204.994, 91.250 205.034 C 91.938 205.053, 94.300 205.937, 96.500 207 C 98.700 208.063, 101.197 208.947, 102.050 208.966 C 103.654 209.001, 106 210.867, 106 212.106 C 106 212.495, 105.098 212.577, 103.995 212.288 C 102.892 212, 101.317 212.322, 100.495 213.004 C 99.292 214.002, 98.994 213.977, 98.970 212.872 C 98.949 211.942, 98.611 212.063, 97.920 213.250 C 97.359 214.213, 96.446 215, 95.891 215 C 95.336 215, 95.160 214.550, 95.500 214 C 96.440 212.479, 95.337 212.806, 93.571 214.571 C 92.707 215.436, 92 215.650, 92 215.048 C 92 214.423, 90.839 214.713, 89.289 215.727 C 87.797 216.702, 86.924 216.938, 87.348 216.250 C 88.633 214.164, 85.828 214.824, 83.095 217.250 C 81.701 218.488, 81.165 218.713, 81.903 217.750 C 83.174 216.092, 82.119 215.214, 80.636 216.697 C 79.619 217.715, 67.743 218.225, 68.362 217.224 C 68.649 216.758, 70.229 216.470, 71.871 216.584 C 73.917 216.726, 74.705 216.395, 74.374 215.533 C 74.084 214.776, 72.651 214.419, 70.778 214.637 C 68.932 214.852, 66.351 214.225, 64.437 213.095 C 62.429 211.911, 60.855 211.545, 60.272 212.128 C 59.756 212.644, 58.521 212.753, 57.527 212.372 C 55.799 211.709, 55.803 211.614, 57.610 210.217 C 59.350 208.872, 59.233 208.806, 56.125 209.378 C 54.269 209.720, 52.244 210.003, 51.625 210.007 C 51.006 210.010, 51.850 210.907, 53.500 212 C 57.202 214.452, 56.123 214.657, 52.188 212.250 C 49.401 210.545, 49.375 210.450, 51.164 208.575 C 52.174 207.516, 53 207.179, 53 207.825 C 53 208.471, 53.477 209, 54.059 209 C 54.641 209, 54.840 208.550, 54.500 208 C 54.122 207.389, 55.667 207, 58.472 207 C 61.759 207, 63.237 206.545, 63.677 205.399 C 64.711 202.704, 61.786 201.853, 59.351 204.140 C 57.959 205.447, 56.467 205.965, 55.226 205.572 C 54.060 205.202, 52.777 205.564, 52.019 206.477 C 51.324 207.315, 50.135 208, 49.378 208 C 48.042 208, 47.590 209.167, 47.925 211.750 C 48.015 212.438, 47.280 212.993, 46.294 212.985 C 44.770 212.972, 44.726 212.824, 46 212 C 47.333 211.138, 47.333 211.027, 46 211 C 44.667 210.973, 44.667 210.851, 46 209.904 C 47.160 209.080, 46.891 208.971, 44.811 209.423 C 43.268 209.758, 41.824 209.524, 41.422 208.874 C 40.993 208.180, 41.260 207.931, 42.111 208.233 C 42.875 208.504, 44.733 208.103, 46.240 207.343 C 47.746 206.582, 49.171 206.081, 49.406 206.230 C 49.641 206.378, 50.171 206.162, 50.583 205.750 C 50.996 205.338, 50.160 205, 48.726 205 C 47.291 205, 45.840 205.450, 45.500 206 C 45.160 206.550, 44.121 206.964, 43.191 206.921 C 42.150 206.872, 41.980 206.648, 42.750 206.338 C 43.437 206.060, 44 205.373, 44 204.810 C 44 204.247, 43.358 204.032, 42.573 204.334 C 41.788 204.635, 40.702 204.345, 40.158 203.691 C 39.440 202.826, 39.831 202.500, 41.585 202.500 C 42.913 202.500, 44 202.838, 44 203.250 C 44 204.310, 48.767 204.186, 49.433 203.108 C 49.736 202.618, 48.525 201.986, 46.742 201.703 C 44.959 201.420, 41.925 200.933, 40 200.619 C 38.075 200.306, 37.039 200.388, 37.697 200.801 C 39.746 202.088, 37.526 204.302, 34.993 203.498 C 33.258 202.947, 33.053 202.585, 34.105 201.935 C 35.062 201.344, 34.725 201.129, 32.987 201.221 C 31.619 201.294, 29.938 201.779, 29.250 202.299 C 28.439 202.913, 28 202.868, 28 202.172 C 28 201.582, 28.788 200.593, 29.750 199.974 C 31.384 198.923, 31.379 198.887, 29.668 199.424 C 28.661 199.741, 27.449 200, 26.976 200 C 26.502 200, 26.288 200.900, 26.500 202 C 26.712 203.100, 26.461 204, 25.943 204 C 25.424 204, 25 203.048, 25 201.883 C 25 200.259, 24.535 199.888, 22.999 200.290 C 21.898 200.578, 21.249 200.405, 21.558 199.907 C 21.866 199.408, 21.281 199, 20.259 199 C 19.237 199, 17.899 198.499, 17.287 197.887 C 16.675 197.275, 15.642 197.103, 14.992 197.505 C 14.199 197.995, 14.747 198.853, 16.655 200.111 C 20.324 202.530, 18.990 202.573, 15.028 200.163 C 13.366 199.153, 12.306 198.028, 12.670 197.663 C 13.035 197.298, 12.133 197, 10.667 197 C 9.200 197, 8 197.398, 8 197.883 M 57.875 199.500 C 57.806 199.775, 57.694 200.520, 57.625 201.155 C 57.454 202.737, 53.987 203.129, 53.412 201.631 C 53.157 200.966, 51.953 200.347, 50.737 200.255 C 49.520 200.163, 49.002 200.406, 49.586 200.794 C 50.169 201.182, 50.915 202.232, 51.244 203.126 C 51.946 205.035, 57.019 204.521, 58.266 202.415 C 58.687 201.703, 60.037 201.302, 61.266 201.522 C 63.434 201.912, 63.443 201.881, 61.559 200.462 C 59.590 198.979, 58.102 198.591, 57.875 199.500 M 66 200.917 C 66 201.421, 66.563 202.060, 67.250 202.338 C 67.975 202.630, 67.740 202.875, 66.691 202.921 C 65.696 202.964, 65.114 203.375, 65.398 203.834 C 65.681 204.293, 68.735 204.770, 72.184 204.895 C 75.633 205.019, 78.127 204.794, 77.727 204.393 C 77.040 203.707, 74.728 203.273, 70.750 203.083 C 69.787 203.037, 69 202.325, 69 201.500 C 69 200.675, 68.325 200, 67.500 200 C 66.675 200, 66 200.412, 66 200.917 M 77.750 200.696 C 74.925 201.424, 75.745 203.162, 78.750 202.816 C 80.263 202.642, 81.421 202.061, 81.325 201.525 C 81.112 200.340, 80.068 200.098, 77.750 200.696 M 202.250 200.659 C 199.805 201.181, 199.326 202.465, 201.155 203.595 C 201.870 204.038, 202.038 203.870, 201.595 203.155 C 201.142 202.421, 201.724 201.940, 203.191 201.836 C 207.508 201.529, 215.494 202.212, 217.016 203.017 C 217.889 203.480, 219.544 203.279, 220.915 202.545 L 223.297 201.271 220.201 200.816 C 218.312 200.539, 217.344 200.747, 217.717 201.351 C 218.095 201.963, 217.599 202.049, 216.414 201.576 C 213.971 200.601, 205.187 200.032, 202.250 200.659 M 239.244 200.664 C 238.553 200.943, 238.228 201.560, 238.522 202.035 C 239.348 203.372, 236.309 204.565, 226.216 206.865 C 221.110 208.029, 214.947 209.885, 212.521 210.990 C 210.095 212.096, 207.447 213, 206.637 213 C 204.542 213, 202 214.080, 202 214.970 C 202 215.739, 209.456 213.731, 214 211.739 C 215.375 211.136, 216.725 210.604, 217 210.556 C 217.275 210.508, 217.950 210.206, 218.500 209.884 C 220.592 208.659, 232.011 206.769, 234.069 207.308 C 236.596 207.969, 239.857 205.341, 240.471 202.149 C 240.699 200.967, 240.799 200.036, 240.693 200.079 C 240.587 200.122, 239.935 200.386, 239.244 200.664 M 16 203.430 C 16 203.705, 16.900 204.411, 18 205 C 19.100 205.589, 20 205.845, 20 205.570 C 20 205.295, 19.100 204.589, 18 204 C 16.900 203.411, 16 203.155, 16 203.430 M 207 204.059 C 207 204.641, 207.450 204.840, 208 204.500 C 208.550 204.160, 209 203.684, 209 203.441 C 209 203.198, 208.550 203, 208 203 C 207.450 203, 207 203.477, 207 204.059 M 22.658 205.449 C 22.287 206.416, 22.582 206.714, 23.545 206.344 C 24.339 206.040, 24.740 205.388, 24.435 204.895 C 23.669 203.655, 23.303 203.769, 22.658 205.449 M 28.053 204.968 C 27.243 205.468, 27.726 205.750, 29.393 205.750 C 32.303 205.750, 32.649 205.463, 30.659 204.700 C 29.922 204.417, 28.749 204.537, 28.053 204.968 M 37.039 207.250 C 39.281 209.340, 40.731 209.586, 39.081 207.597 C 38.187 206.520, 38.216 206.085, 39.208 205.724 C 39.919 205.465, 39.299 205.309, 37.831 205.377 C 35.239 205.496, 35.216 205.551, 37.039 207.250 M 67.510 207.016 C 67.856 207.575, 68.557 207.774, 69.069 207.457 C 70.456 206.600, 70.198 206, 68.441 206 C 67.584 206, 67.165 206.457, 67.510 207.016 M 121.776 208.251 C 122.163 209.731, 122.471 209.864, 123.123 208.835 C 124.320 206.946, 124.201 206.333, 122.637 206.333 C 121.786 206.333, 121.463 207.054, 121.776 208.251 M 124.667 207.667 C 123.561 208.772, 123.908 209.751, 125.641 210.416 C 127.014 210.943, 127.076 210.796, 126.019 209.523 C 125.324 208.685, 125.182 208, 125.703 208 C 126.850 208, 131.568 212.887, 131.333 213.831 C 131.242 214.199, 131.426 214.725, 131.744 215 C 132.061 215.275, 131.997 214.938, 131.601 214.250 C 130.193 211.802, 132.865 213.051, 135.347 216 C 138.146 219.327, 139.560 219.901, 138.564 217.306 C 137.971 215.760, 138.083 215.765, 139.855 217.369 C 140.923 218.335, 143.305 219.210, 145.148 219.313 C 146.992 219.416, 149.048 220.175, 149.718 221 C 150.388 221.825, 150.951 222.010, 150.968 221.411 C 151.003 220.206, 155.922 220.216, 157.878 221.424 C 158.808 221.999, 158.666 222.524, 157.311 223.514 C 156.317 224.241, 155.769 225.103, 156.095 225.428 C 156.798 226.132, 161.470 221.978, 162.277 219.931 C 162.710 218.836, 162.861 218.900, 162.921 220.203 C 163.047 222.913, 168.138 223.603, 186.500 223.402 C 198.500 223.271, 205.118 222.752, 209 221.639 C 212.025 220.772, 217.762 219.936, 221.749 219.781 C 226.731 219.588, 228.998 219.109, 228.999 218.250 C 229 217.563, 228.270 217, 227.378 217 C 226.027 217, 225.970 216.741, 227.039 215.453 C 227.746 214.602, 228.588 214.322, 228.912 214.831 C 229.749 216.149, 238.106 216.813, 237.669 215.527 C 237.478 214.962, 235.901 214.566, 234.166 214.646 C 232.431 214.726, 231.201 214.484, 231.433 214.108 C 231.666 213.732, 230.676 213.327, 229.234 213.207 C 227.792 213.088, 226.312 212.505, 225.945 211.911 C 225.518 211.220, 225.060 211.402, 224.671 212.416 C 224.336 213.287, 223.572 214, 222.972 214 C 222.373 214, 222.114 213.625, 222.397 213.167 C 222.680 212.708, 222.277 212.333, 221.500 212.333 C 220.723 212.333, 220.301 212.677, 220.560 213.098 C 221.179 214.099, 219.612 215.021, 216.256 215.630 C 211.161 216.554, 212.489 217.272, 218 216.574 C 221.025 216.191, 223.650 215.455, 223.833 214.939 C 224.429 213.260, 226.096 213.950, 225.794 215.750 C 225.556 217.165, 223.778 217.710, 216.500 218.597 C 211.154 219.248, 207.028 219.329, 206.337 218.797 C 205.698 218.304, 202.323 218.061, 198.837 218.257 L 192.500 218.615 199.250 218.807 C 208.876 219.082, 207.620 220.631, 197.653 220.776 C 193.062 220.843, 188.900 220.974, 188.403 221.067 C 187.906 221.161, 184.661 221.184, 181.191 221.118 C 176.840 221.037, 175.095 220.655, 175.569 219.888 C 176.008 219.177, 177.941 219, 180.926 219.396 C 184.407 219.858, 186.094 219.612, 187.548 218.434 C 188.622 217.564, 188.862 217.183, 188.082 217.589 C 187.302 217.994, 183.702 218.410, 180.082 218.513 C 176.462 218.615, 172.195 219.058, 170.601 219.495 C 168.495 220.074, 167.898 219.974, 168.420 219.130 C 168.815 218.490, 169.466 218.170, 169.867 218.418 C 170.268 218.665, 171.179 218.507, 171.893 218.066 C 172.798 217.507, 172.337 217.050, 170.370 216.557 C 168.819 216.168, 167.419 216.242, 167.259 216.722 C 167.099 217.202, 165.404 217.412, 163.492 217.189 C 161.580 216.966, 160.252 216.401, 160.540 215.935 C 160.829 215.468, 156.325 215.180, 150.531 215.293 C 144.738 215.407, 139.998 215.110, 139.999 214.633 C 140 214.157, 139.100 214.002, 138 214.290 C 136.900 214.577, 136 214.330, 136 213.740 C 136 213.150, 135.716 212.951, 135.368 213.298 C 135.021 213.646, 132.915 212.371, 130.688 210.465 C 126.491 206.873, 125.788 206.546, 124.667 207.667 M 17.441 210.532 C 19.645 212.199, 21 212.418, 21 211.107 C 21 210.145, 18.568 208.980, 16.668 209.032 C 16.026 209.049, 16.374 209.724, 17.441 210.532 M 29 210.094 C 29 210.592, 29.900 211, 31 211 C 32.100 211, 33 210.827, 33 210.617 C 33 210.406, 32.100 209.998, 31 209.710 C 29.900 209.423, 29 209.595, 29 210.094 M 208.813 209.683 C 209.534 209.972, 210.397 209.936, 210.729 209.604 C 211.061 209.272, 210.471 209.036, 209.417 209.079 C 208.252 209.127, 208.015 209.364, 208.813 209.683 M 65.500 212 C 65.160 212.550, 65.359 213, 65.941 213 C 66.523 213, 67 212.550, 67 212 C 67 211.450, 66.802 211, 66.559 211 C 66.316 211, 65.840 211.450, 65.500 212 M 91.613 212.183 C 91.902 212.650, 92.557 212.774, 93.069 212.457 C 94.377 211.649, 94.230 211.333, 92.544 211.333 C 91.743 211.333, 91.324 211.716, 91.613 212.183 M 61 212.941 C 61 213.459, 61.445 214.157, 61.989 214.493 C 62.555 214.843, 62.723 214.442, 62.382 213.552 C 61.717 211.820, 61 211.503, 61 212.941 M 242 213.500 C 242 214.325, 241.400 215, 240.667 215 C 239.933 215, 239.333 215.694, 239.333 216.541 C 239.333 217.409, 240.025 217.949, 240.917 217.778 C 241.787 217.610, 242.500 216.954, 242.500 216.320 C 242.500 215.686, 242.838 214.829, 243.250 214.417 C 244.317 213.349, 244.178 212, 243 212 C 242.450 212, 242 212.675, 242 213.500 M 211.500 214 C 210.239 214.542, 210.055 214.859, 211 214.859 C 211.825 214.859, 213.400 214.473, 214.500 214 C 215.761 213.458, 215.945 213.141, 215 213.141 C 214.175 213.141, 212.600 213.527, 211.500 214 M 42 216.059 C 42 216.641, 42.450 216.840, 43 216.500 C 43.550 216.160, 44 215.684, 44 215.441 C 44 215.198, 43.550 215, 43 215 C 42.450 215, 42 215.477, 42 216.059 M 45.750 215.662 C 46.438 215.940, 47.563 215.940, 48.250 215.662 C 48.938 215.385, 48.375 215.158, 47 215.158 C 45.625 215.158, 45.063 215.385, 45.750 215.662 M 53.500 216 C 53.133 216.594, 54.225 216.971, 56.191 216.930 C 58.948 216.871, 59.166 216.716, 57.500 216 C 54.787 214.834, 54.220 214.834, 53.500 216 M 63.507 215.989 C 63.157 216.555, 63.558 216.723, 64.448 216.382 C 66.180 215.717, 66.497 215, 65.059 215 C 64.541 215, 63.843 215.445, 63.507 215.989 M 60 217.059 C 60 217.641, 60.450 217.840, 61 217.500 C 61.550 217.160, 62 216.684, 62 216.441 C 62 216.198, 61.550 216, 61 216 C 60.450 216, 60 216.477, 60 217.059 M 142.341 216.674 C 143.293 217.627, 147.948 217.725, 147.364 216.780 C 147.099 216.351, 145.709 216, 144.274 216 C 142.840 216, 141.970 216.303, 142.341 216.674 M 149.658 217.550 C 149.937 218.278, 150.803 218.629, 151.583 218.330 C 153.461 217.609, 153.373 217.331, 151.075 216.730 C 149.761 216.386, 149.311 216.646, 149.658 217.550 M 155 217 C 154.099 217.582, 153.975 217.975, 154.691 217.985 C 155.346 217.993, 156.160 217.550, 156.500 217 C 157.267 215.758, 156.921 215.758, 155 217 M 84.097 225.081 C 85.819 226.171, 88 226.266, 87.999 225.250 C 87.999 224.838, 86.805 224.431, 85.346 224.346 C 83.448 224.236, 83.093 224.445, 84.097 225.081 M 149 226 C 149 226.550, 150.350 227, 152 227 C 153.650 227, 155 226.550, 155 226 C 155 225.450, 153.650 225, 152 225 C 150.350 225, 149 225.450, 149 226" stroke="none" fill="#15283f" fill-rule="evenodd"/><path d="M 117 15 C 117 15.550, 117.450 16, 118 16 C 118.550 16, 119 15.550, 119 15 C 119 14.450, 118.550 14, 118 14 C 117.450 14, 117 14.450, 117 15 M 112 18 C 112 18.550, 112.450 19, 113 19 C 113.550 19, 114 18.550, 114 18 C 114 17.450, 113.550 17, 113 17 C 112.450 17, 112 17.450, 112 18 M 107.500 21 C 107.840 21.550, 108.568 22, 109.118 22 C 109.668 22, 109.840 21.550, 109.500 21 C 109.160 20.450, 108.432 20, 107.882 20 C 107.332 20, 107.160 20.450, 107.500 21 M 113 22 C 113 22.550, 113.450 23, 114 23 C 114.550 23, 115 22.550, 115 22 C 115 21.450, 114.550 21, 114 21 C 113.450 21, 113 21.450, 113 22 M 108 26 C 107.207 26.490, 106.890 27.223, 107.296 27.629 C 107.701 28.035, 108.558 27.842, 109.200 27.200 C 110.711 25.689, 109.868 24.846, 108 26 M 153.500 28 C 153.160 28.550, 153.359 29, 153.941 29 C 154.523 29, 155 28.550, 155 28 C 155 27.450, 154.802 27, 154.559 27 C 154.316 27, 153.840 27.450, 153.500 28 M 117 28.393 C 117 28.609, 117.675 29.045, 118.500 29.362 C 119.325 29.678, 120 29.501, 120 28.969 C 120 28.436, 119.325 28, 118.500 28 C 117.675 28, 117 28.177, 117 28.393 M 95.701 32.500 C 94.359 35.316, 94.300 36, 95.401 36 C 97.109 36, 99.838 31.934, 99.261 30.250 C 98.541 28.147, 97.448 28.838, 95.701 32.500 M 102.338 30.526 C 103.900 31.423, 105.437 31.896, 105.755 31.578 C 106.611 30.722, 105.836 30.234, 102.498 29.529 L 99.500 28.896 102.338 30.526 M 111.441 30.574 C 109.568 32.094, 109.587 32.129, 112 31.588 C 113.375 31.280, 114.864 31.021, 115.309 31.014 C 115.754 31.006, 115.840 30.550, 115.500 30 C 114.642 28.612, 113.696 28.746, 111.441 30.574 M 140.087 30 C 140.008 30.275, 139.698 35.401, 139.398 41.392 C 138.789 53.592, 139.330 57.471, 141.524 56.629 C 142.317 56.325, 144.761 56.710, 146.956 57.485 C 149.331 58.322, 151.183 58.514, 151.527 57.957 C 151.845 57.442, 153.067 57.916, 154.241 59.010 C 155.416 60.105, 156.950 61, 157.650 61 C 158.349 61, 159.840 61.985, 160.961 63.189 C 162.082 64.392, 163 64.850, 163 64.205 C 163 63.402, 164.100 63.557, 166.487 64.695 C 168.406 65.610, 169.758 66.575, 169.494 66.840 C 168.856 67.477, 173.266 70.560, 174.324 70.217 C 174.778 70.071, 174.937 70.299, 174.679 70.725 C 174.088 71.702, 176.581 74.085, 177.370 73.297 C 177.691 72.976, 178.237 73.453, 178.583 74.357 C 178.930 75.261, 179.677 76, 180.243 76 C 181.251 76, 180.793 70.239, 179.383 65.198 C 178.792 63.083, 178.974 62.953, 181.620 63.590 C 183.204 63.972, 186.170 65.120, 188.210 66.142 C 190.251 67.164, 192.163 68, 192.460 68 C 192.757 68, 193 66.425, 193 64.500 C 193 62.575, 193.492 61, 194.093 61 C 194.776 61, 195.016 62.477, 194.732 64.934 L 194.278 68.867 198.639 65.222 C 203.233 61.382, 203.951 60.421, 201.532 61.349 C 200.725 61.659, 199.791 61.470, 199.457 60.930 C 199.123 60.389, 198.321 60.012, 197.675 60.092 C 197.029 60.172, 195.825 60.177, 195 60.103 C 193.667 59.984, 193.667 59.860, 195 58.985 C 196.333 58.109, 196.333 57.890, 195 57.011 C 194.175 56.466, 192.992 56.206, 192.372 56.432 C 191.615 56.708, 191.341 55.386, 191.541 52.422 C 191.868 47.571, 191.022 46.978, 188.036 49.964 C 186.766 51.234, 185.838 51.548, 185.408 50.852 C 185.043 50.260, 185.364 49.363, 186.122 48.858 C 187.022 48.258, 186.490 48.175, 184.586 48.619 C 182.143 49.189, 181.774 49.032, 182.304 47.650 C 182.771 46.433, 182.355 45.979, 180.719 45.921 C 179.498 45.878, 179.063 45.615, 179.750 45.338 C 181.200 44.753, 181.441 43, 180.071 43 C 179.561 43, 178.442 43.701, 177.585 44.557 C 176.429 45.714, 175.574 45.851, 174.264 45.088 C 173.184 44.459, 173.008 44.049, 173.809 44.030 C 174.529 44.014, 174.849 43.565, 174.520 43.033 C 174.191 42.501, 172.520 42.346, 170.806 42.689 C 168.558 43.138, 167.891 42.985, 168.414 42.140 C 168.812 41.495, 169.557 41.226, 170.069 41.543 C 170.581 41.859, 171 41.416, 171 40.559 C 171 38.807, 170.154 38.616, 168.115 39.908 C 167.261 40.449, 165.407 40.232, 163.278 39.343 C 160.434 38.154, 159.543 38.129, 158.225 39.200 C 156.856 40.313, 156.720 40.248, 157.281 38.750 C 157.810 37.340, 157.385 37, 155.091 37 C 153.526 37, 151.703 36.347, 151.041 35.549 C 150.378 34.751, 147.872 33.803, 145.471 33.443 C 142.649 33.020, 140.951 32.207, 140.669 31.144 C 140.429 30.240, 140.167 29.725, 140.087 30 M 127.698 32.345 C 127.399 33.123, 125.910 33.614, 124.164 33.510 C 121.870 33.373, 121.009 33.830, 120.573 35.415 C 120.090 37.172, 119.845 37.264, 119.015 36 C 118.160 34.697, 118.029 34.715, 118.015 36.143 C 118.007 37.047, 117.288 38.059, 116.418 38.393 C 114.304 39.204, 113.784 39.158, 114.371 38.209 C 114.640 37.774, 113.348 37.594, 111.500 37.810 C 109.125 38.087, 108.298 38.612, 108.677 39.601 C 109.335 41.315, 107.835 41.435, 106.200 39.800 C 105.267 38.867, 105 38.978, 105 40.300 C 105 41.235, 104.550 42, 104 42 C 101.588 42, 103.346 38.298, 106.760 36.189 C 108.817 34.917, 109.742 34.105, 108.815 34.382 C 107.888 34.660, 106.951 34.354, 106.734 33.703 C 106.277 32.331, 103 35.162, 103 36.929 C 103 37.518, 102.523 38, 101.941 38 C 101.359 38, 101.141 38.419, 101.457 38.931 C 101.774 39.443, 101.626 40.113, 101.130 40.420 C 100.634 40.726, 99.974 40.009, 99.664 38.824 C 99.166 36.919, 98.905 36.834, 97.395 38.086 C 95.823 39.389, 95.819 39.525, 97.344 39.823 C 98.255 40.001, 99 40.564, 99 41.073 C 99 42.427, 95.618 42.205, 94.075 40.750 C 93.007 39.742, 92.837 39.785, 93.199 40.972 C 93.446 41.782, 94.740 42.758, 96.074 43.140 C 98.340 43.790, 98.302 43.839, 95.500 43.880 C 92.091 43.929, 82.756 44.724, 82 45.029 C 81.105 45.390, 79.536 45.692, 77.750 45.848 C 76.658 45.943, 75.988 46.846, 75.968 48.250 C 75.922 51.504, 73.662 54, 70.762 54 C 69.378 54, 67.659 54.706, 66.942 55.570 C 66.226 56.433, 64.821 56.925, 63.820 56.663 C 61.002 55.926, 61.773 57.097, 67.574 62.369 C 71.911 66.310, 73.804 67.336, 77.500 67.753 C 83.063 68.380, 82.805 69.511, 77.014 69.875 C 75.201 69.989, 75.311 70.386, 78.264 74.424 C 81.583 78.961, 84.734 81.356, 83.643 78.511 C 83.324 77.680, 83.446 77, 83.915 77 C 84.383 77, 85.002 76.100, 85.290 75 C 85.577 73.900, 86.556 73, 87.465 73 C 88.374 73, 88.840 72.550, 88.500 72 C 88.160 71.450, 88.558 71, 89.384 71 C 90.989 71, 96.965 67.783, 100.885 64.809 C 102.197 63.814, 103.997 62.997, 104.885 62.994 C 105.773 62.990, 107.671 62.376, 109.103 61.629 C 110.535 60.882, 113.790 59.959, 116.336 59.577 C 118.883 59.195, 121.311 58.302, 121.733 57.592 C 122.155 56.882, 123.775 55.991, 125.334 55.611 C 126.892 55.231, 127.925 55.313, 127.628 55.793 C 127.331 56.274, 127.639 56.667, 128.312 56.667 C 128.985 56.667, 130.878 56.990, 132.518 57.385 C 134.617 57.891, 133.653 56.999, 129.261 54.374 C 125.829 52.323, 123.220 50.447, 123.461 50.205 C 123.703 49.963, 126.804 51.124, 130.352 52.784 L 136.803 55.803 137.346 51.651 C 137.645 49.368, 137.903 43.768, 137.919 39.207 C 137.942 32.901, 137.656 31.100, 136.725 31.691 C 135.153 32.690, 130 32.735, 130 31.750 C 130 30.472, 128.242 30.926, 127.698 32.345 M 89 34.092 C 89 34.693, 88.100 36.329, 87 37.727 C 84.607 40.769, 84.387 44, 86.571 44 C 89.267 44, 91.250 41.156, 90.781 37.963 C 90.542 36.333, 90.745 35, 91.232 35 C 91.719 35, 91.840 34.550, 91.500 34 C 90.673 32.663, 89 32.724, 89 34.092 M 161.813 33.683 C 162.534 33.972, 163.397 33.936, 163.729 33.604 C 164.061 33.272, 163.471 33.036, 162.417 33.079 C 161.252 33.127, 161.015 33.364, 161.813 33.683 M 92 38.059 C 92 38.641, 92.450 38.840, 93 38.500 C 93.550 38.160, 94 37.684, 94 37.441 C 94 37.198, 93.550 37, 93 37 C 92.450 37, 92 37.477, 92 38.059 M 99.507 42.989 C 99.157 43.555, 99.558 43.723, 100.448 43.382 C 102.180 42.717, 102.497 42, 101.059 42 C 100.541 42, 99.843 42.445, 99.507 42.989 M 127.612 45.097 C 129.751 46.801, 132.773 48.856, 134.328 49.664 C 137.059 51.082, 137.145 51.053, 136.828 48.816 C 136.648 47.542, 136.050 46.481, 135.500 46.458 C 134.950 46.435, 132.305 45.422, 129.623 44.208 C 123.219 41.309, 122.986 41.411, 127.612 45.097 M 164.500 43 C 164.160 43.550, 164.332 44, 164.882 44 C 165.432 44, 166.160 43.550, 166.500 43 C 166.840 42.450, 166.668 42, 166.118 42 C 165.568 42, 164.840 42.450, 164.500 43 M 78.750 54.689 C 77.787 54.941, 77 55.579, 77 56.109 C 77 56.688, 77.795 56.645, 79 56 C 80.100 55.411, 81 54.720, 81 54.465 C 81 54.209, 80.888 54.052, 80.750 54.116 C 80.612 54.180, 79.713 54.438, 78.750 54.689 M 54.510 58.016 C 54.856 58.575, 55.557 58.774, 56.069 58.457 C 57.456 57.600, 57.198 57, 55.441 57 C 54.584 57, 54.165 57.457, 54.510 58.016 M 60 59.536 C 60 60.495, 59.283 61.804, 58.406 62.445 C 57.530 63.086, 56.742 64.789, 56.656 66.230 C 56.535 68.261, 55.855 68.978, 53.627 69.424 C 51.208 69.908, 50.951 70.236, 52 71.500 C 53.026 72.736, 52.938 73, 51.500 73 C 50.062 73, 49.974 73.264, 51 74.500 C 52.036 75.749, 51.908 76, 50.234 76 C 48.932 76, 48.271 76.617, 48.361 77.750 C 48.452 78.899, 47.899 79.399, 46.750 79.206 C 45.788 79.045, 45 79.382, 45 79.956 C 45 80.530, 45.788 81.007, 46.750 81.015 C 48.151 81.028, 48.221 81.207, 47.104 81.914 C 46.314 82.415, 45.983 83.515, 46.343 84.451 C 46.692 85.360, 46.571 85.853, 46.074 85.546 C 45.577 85.239, 44.925 85.553, 44.625 86.244 C 44.325 86.935, 44.326 86.299, 44.627 84.832 C 45.041 82.819, 44.673 81.895, 43.128 81.069 C 42.002 80.466, 40.725 80.032, 40.291 80.105 C 38.357 80.428, 37.618 79.895, 38.885 79.092 C 39.996 78.389, 39.859 77.995, 38.196 77.105 C 36.830 76.374, 35.910 76.337, 35.502 76.997 C 35.161 77.549, 35.297 78, 35.803 78 C 36.736 78, 36.632 82.168, 35.660 83.741 C 35.370 84.211, 35.545 85.249, 36.051 86.048 C 36.806 87.242, 36.972 87.179, 36.985 85.691 C 36.994 84.573, 37.444 84.156, 38.162 84.600 C 38.963 85.095, 38.652 85.864, 37.162 87.070 C 34.668 89.090, 34.309 90.479, 36.500 89.638 C 38.440 88.894, 38.399 89.458, 36.364 91.493 C 35.144 92.714, 35.017 93.417, 35.864 94.264 C 36.489 94.889, 36.993 95.873, 36.985 96.450 C 36.976 97.028, 36.492 96.825, 35.909 96 C 35.110 94.871, 34.722 94.809, 34.341 95.750 C 34.062 96.438, 33.292 97, 32.631 97 C 31.970 97, 31.429 97.900, 31.429 99 C 31.429 100.100, 31.782 101, 32.214 101 C 32.646 101, 33 100.523, 33 99.941 C 33 99.359, 33.480 99.179, 34.067 99.541 C 34.653 99.904, 34.882 100.451, 34.575 100.758 C 34.268 101.065, 34.547 101.954, 35.194 102.734 C 36.009 103.715, 36.045 104.360, 35.312 104.826 C 33.678 105.865, 35.609 109.899, 38.223 110.907 C 39.475 111.390, 42.249 113.184, 44.388 114.893 C 46.526 116.602, 48.508 118, 48.793 118 C 50.098 118, 55.980 112.776, 55.517 112.028 C 55.231 111.565, 55.917 111.427, 57.041 111.721 C 58.437 112.086, 58.992 111.819, 58.793 110.878 C 58.626 110.093, 59.181 109.610, 60.083 109.756 C 60.954 109.896, 61.671 109.446, 61.676 108.756 C 61.681 108.065, 62.012 106.487, 62.410 105.250 C 62.855 103.869, 62.722 103, 62.067 103 C 61.480 103, 61 102.502, 61 101.893 C 61 101.284, 61.603 101.017, 62.339 101.300 C 63.847 101.879, 67.621 96.280, 67.159 94.150 C 66.998 93.407, 67.315 93.077, 67.864 93.416 C 68.413 93.755, 69.176 93.525, 69.559 92.905 C 69.942 92.284, 69.736 91.455, 69.100 91.062 C 68.357 90.603, 68.883 89.919, 70.570 89.150 C 72.200 88.407, 72.989 87.413, 72.649 86.528 C 72.268 85.534, 72.591 85.290, 73.715 85.721 C 74.789 86.133, 75.087 85.949, 74.605 85.170 C 74.207 84.526, 74.021 83.993, 74.191 83.985 C 74.361 83.977, 76.181 83.384, 78.236 82.669 L 81.972 81.368 77.052 75.847 C 74.207 72.656, 70.733 69.879, 68.816 69.266 C 66.118 68.402, 65.930 68.185, 67.807 68.102 C 69.847 68.012, 69.963 67.789, 68.807 66.169 C 68.088 65.162, 65.813 62.865, 63.750 61.065 C 60.769 58.464, 60 58.150, 60 59.536 M 193.519 72.662 C 185.928 80.416, 184.333 82.538, 185.442 83.412 C 186.997 84.636, 191 91.912, 191 93.513 C 191 94.086, 191.900 95.326, 193 96.268 C 195.060 98.031, 195.660 100, 194.139 100 C 193.665 100, 193.492 101.125, 193.755 102.500 C 194.018 103.875, 194.603 105, 195.055 105 C 195.506 105, 195.660 107.961, 195.395 111.580 L 194.914 118.160 201.207 113.025 L 207.500 107.890 212.541 113.467 L 217.583 119.045 220.319 116.189 C 222.932 113.461, 222.987 113.203, 221.533 110.417 C 220.697 108.813, 220.010 106.289, 220.006 104.809 C 220.003 103.329, 219.543 101.835, 218.984 101.490 C 218.425 101.144, 218.203 100.481, 218.491 100.015 C 218.779 99.549, 218.492 97.893, 217.853 96.334 C 217.215 94.775, 216.566 92.862, 216.410 92.082 C 216.255 91.302, 215.199 89.408, 214.064 87.872 C 211.770 84.770, 211.482 83.339, 213.044 82.819 C 213.618 82.627, 213.168 81.484, 212.044 80.277 C 210.920 79.071, 210 77.652, 210 77.125 C 210 76.598, 209.438 75.940, 208.750 75.662 C 208.025 75.370, 208.260 75.125, 209.309 75.079 C 210.326 75.035, 210.829 74.532, 210.458 73.932 C 210.095 73.344, 209.169 73.105, 208.401 73.400 C 207.606 73.705, 206.307 72.872, 205.387 71.468 C 204.498 70.111, 203.034 68.993, 202.135 68.985 C 200.772 68.972, 200.738 68.819, 201.930 68.065 C 203.147 67.294, 204.328 63, 203.322 63 C 203.134 63, 198.722 67.348, 193.519 72.662 M 45.500 66 C 45.840 66.550, 46.568 67, 47.118 67 C 47.668 67, 47.840 66.550, 47.500 66 C 47.160 65.450, 46.432 65, 45.882 65 C 45.332 65, 45.160 65.450, 45.500 66 M 182.275 72.866 C 182.531 80.679, 183.395 81.024, 187.431 74.925 C 188.860 72.766, 190.584 70.980, 191.264 70.955 C 192.470 70.911, 184.212 66.135, 182.775 66.045 C 182.377 66.020, 182.152 69.090, 182.275 72.866 M 40 71.918 C 40 72.423, 39.749 73.490, 39.443 74.289 C 39.136 75.088, 39.473 75.967, 40.193 76.242 C 41.058 76.573, 41.571 75.771, 41.710 73.871 C 41.825 72.292, 41.488 71, 40.960 71 C 40.432 71, 40 71.413, 40 71.918 M 56.886 73.222 C 55.742 75.370, 55.782 75.416, 57.586 74.033 C 58.639 73.226, 59.642 72.484, 59.817 72.383 C 59.991 72.283, 59.676 71.918, 59.117 71.572 C 58.558 71.227, 57.554 71.969, 56.886 73.222 M 51.750 77.159 C 49.500 79.526, 49.545 79.932, 51.989 79.293 C 53.083 79.007, 53.755 78.412, 53.483 77.972 C 53.210 77.531, 53.531 76.990, 54.195 76.768 C 54.866 76.545, 54.980 76.134, 54.451 75.842 C 53.928 75.553, 52.712 76.146, 51.750 77.159 M 33 82 C 33 82.550, 33.450 83, 34 83 C 34.550 83, 35 82.550, 35 82 C 35 81.450, 34.550 81, 34 81 C 33.450 81, 33 81.450, 33 82 M 41.638 83.500 C 41.955 84.325, 42.391 85, 42.607 85 C 42.823 85, 43 84.325, 43 83.500 C 43 82.675, 42.564 82, 42.031 82 C 41.499 82, 41.322 82.675, 41.638 83.500 M 40.086 88.947 C 39.019 89.606, 39.165 90.018, 40.774 90.879 C 42.412 91.756, 42.777 91.683, 42.605 90.516 C 42.297 88.413, 41.626 87.995, 40.086 88.947 M 44.086 88.500 C 44.190 90.394, 45.856 93.584, 45.914 92 C 45.945 91.175, 45.533 89.825, 45 89 C 44.467 88.175, 44.055 87.950, 44.086 88.500 M 31.813 91.683 C 32.534 91.972, 33.397 91.936, 33.729 91.604 C 34.061 91.272, 33.471 91.036, 32.417 91.079 C 31.252 91.127, 31.015 91.364, 31.813 91.683 M 27.085 94.250 C 26.107 96.837, 26.850 98.861, 28.059 96.905 C 28.504 96.185, 28.646 95.237, 28.375 94.798 C 28.104 94.359, 28.359 94, 28.941 94 C 29.523 94, 30 93.550, 30 93 C 30 91.114, 27.936 91.999, 27.085 94.250 M 64 93 C 63.099 93.582, 62.975 93.975, 63.691 93.985 C 64.346 93.993, 65.160 93.550, 65.500 93 C 66.267 91.758, 65.921 91.758, 64 93 M 48.500 94 C 48.840 94.550, 49.316 95, 49.559 95 C 49.802 95, 50 94.550, 50 94 C 50 93.450, 49.523 93, 48.941 93 C 48.359 93, 48.160 93.450, 48.500 94 M 46 99.893 C 46 100.384, 46.739 101.069, 47.641 101.416 C 49.014 101.943, 49.076 101.796, 48.019 100.523 C 46.579 98.788, 46 98.607, 46 99.893 M 30.500 106 C 30.160 106.550, 30.359 107, 30.941 107 C 31.523 107, 32 106.550, 32 106 C 32 105.450, 31.802 105, 31.559 105 C 31.316 105, 30.840 105.450, 30.500 106 M 30.459 111.067 C 30.096 111.653, 30.070 112.403, 30.400 112.733 C 30.730 113.063, 31 112.822, 31 112.198 C 31 111.574, 31.675 111.322, 32.500 111.638 C 33.325 111.955, 34 112.889, 34 113.714 C 34 114.590, 33.417 114.990, 32.598 114.676 C 30.523 113.880, 29.792 115.128, 31.571 116.429 C 32.419 117.048, 33.277 118.442, 33.479 119.527 C 33.682 120.612, 33.938 121.612, 34.048 121.750 C 34.657 122.505, 34.525 124.720, 33.781 126.250 C 33.222 127.399, 33.327 128, 34.087 128 C 34.925 128, 34.901 128.414, 34 129.500 C 31.608 132.382, 34.124 130.959, 40.608 125.763 L 47.143 120.526 44.322 118.231 C 40.326 114.982, 32.801 110, 31.888 110 C 31.464 110, 30.821 110.480, 30.459 111.067 M 206.579 111.871 C 206.180 112.517, 203.622 114.548, 200.894 116.386 L 195.933 119.726 198.217 121.258 C 199.472 122.100, 202.291 124.402, 204.479 126.374 L 208.458 129.958 212.189 126.316 C 215.786 122.803, 215.865 122.580, 214.390 120.086 C 211.282 114.830, 207.324 110.667, 206.579 111.871 M 55.294 116.370 C 52.981 118.091, 51.210 119.926, 51.360 120.447 C 51.509 120.967, 54.077 123.080, 57.066 125.142 C 62.490 128.884, 64.203 128.718, 62.142 124.651 C 61.543 123.468, 60.896 120.593, 60.705 118.262 C 60.514 115.932, 60.165 113.848, 59.929 113.632 C 59.693 113.416, 57.607 114.648, 55.294 116.370 M 220.559 118.935 C 218.890 120.779, 218.894 120.988, 220.654 123.403 C 221.669 124.797, 222.893 125.951, 223.372 125.969 C 223.852 125.986, 223.684 125.324, 222.998 124.498 C 222.258 123.606, 221.995 121.777, 222.350 119.998 C 223.056 116.472, 222.882 116.368, 220.559 118.935 M 192.890 121.750 C 193.539 122.987, 193.814 124, 193.500 124 C 193.186 124, 193.440 124.954, 194.065 126.121 C 194.756 127.413, 194.797 127.993, 194.169 127.604 C 192.204 126.390, 191.813 129.136, 193.652 131.233 C 195.379 133.202, 195.384 133.297, 193.720 132.689 C 191.248 131.787, 189.131 136.248, 190.975 138.470 C 192.026 139.736, 191.965 140, 190.622 140 C 189.730 140, 188.998 140.563, 188.996 141.250 C 188.994 141.938, 187.907 144.637, 186.582 147.250 C 185.256 149.863, 184.554 152, 185.022 152 C 185.490 152, 184.664 153.259, 183.186 154.799 C 181.709 156.338, 180.162 157.436, 179.750 157.240 C 179.338 157.043, 179 157.857, 179 159.048 C 179 160.617, 178.562 161.046, 177.411 160.604 C 176.016 160.069, 175.886 160.943, 176.351 167.747 C 176.643 172.011, 176.908 176.577, 176.941 177.893 C 176.999 180.255, 177.102 180.279, 184.816 179.750 C 189.115 179.455, 193.502 179.645, 194.566 180.172 C 196.467 181.113, 196.466 181.103, 194.559 179.565 C 192.744 178.101, 192.854 177.877, 195.542 177.580 C 197.149 177.402, 201.044 173.468, 202.619 170.432 C 203.863 168.035, 203.839 167.403, 202.414 165.228 C 201.448 163.755, 201.303 163.069, 202.054 163.533 C 202.987 164.110, 203.157 163.687, 202.707 161.906 C 202.125 159.602, 202.161 159.583, 203.554 161.448 C 204.355 162.519, 204.743 164.235, 204.417 165.261 C 203.896 166.903, 204.063 166.978, 205.813 165.885 C 206.906 165.202, 207.589 164.094, 207.331 163.421 C 207.059 162.711, 207.617 162.262, 208.662 162.350 C 210.461 162.500, 210.837 161.374, 211.188 154.764 C 211.279 153.046, 212.035 151.806, 213.219 151.430 C 214.689 150.964, 214.854 150.529, 213.967 149.460 C 213.340 148.705, 213.160 147.550, 213.567 146.892 C 214.098 146.033, 214.722 146.231, 215.787 147.599 C 217.229 149.449, 217.248 149.446, 216.499 147.500 C 215.285 144.344, 215.390 141.741, 216.751 141.268 C 217.548 140.991, 217.781 141.407, 217.394 142.416 C 216.444 144.890, 218.406 144.273, 219.513 141.750 C 220.257 140.054, 221.239 139.549, 223.500 139.698 L 226.500 139.896 223.869 138.478 C 221.007 136.936, 219.040 133.695, 221.551 134.658 C 222.348 134.964, 223 134.716, 223 134.107 C 223 133.498, 222.213 132.964, 221.250 132.921 C 220.287 132.878, 220.037 132.624, 220.694 132.356 C 221.350 132.089, 221.604 131.112, 221.257 130.185 C 220.706 128.716, 220.842 128.676, 222.313 129.872 C 225.209 132.228, 224.158 129.875, 220.750 126.373 L 217.500 123.033 212.968 128.155 L 208.437 133.277 201.968 127.978 C 198.411 125.063, 194.647 121.963, 193.604 121.089 C 191.805 119.580, 191.769 119.614, 192.890 121.750 M 41.927 127.727 C 37.842 130.762, 35.375 132.945, 36.444 132.579 C 38.333 131.933, 38.337 131.971, 36.558 133.936 C 34.896 135.772, 34.878 136.016, 36.364 136.586 C 37.264 136.931, 38 137.980, 38 138.916 C 38 139.852, 38.613 141.456, 39.362 142.480 C 40.111 143.504, 40.521 145.114, 40.275 146.058 C 40.028 147.002, 40.315 148.077, 40.913 148.446 C 41.511 148.816, 42 149.976, 42 151.024 C 42 152.072, 43.139 154.970, 44.532 157.465 C 45.925 159.959, 46.712 162.007, 46.282 162.015 C 45.852 162.024, 45.950 162.361, 46.500 162.765 C 47.786 163.710, 50.198 168, 49.443 168 C 49.127 168, 47.987 167.528, 46.911 166.952 C 45.424 166.157, 44.580 166.277, 43.405 167.452 C 42.061 168.796, 42.054 169, 43.345 169 C 44.164 169, 45.022 169.338, 45.253 169.750 C 45.483 170.162, 45.494 169.825, 45.277 169 C 44.960 167.799, 45.132 167.749, 46.141 168.750 C 46.833 169.438, 48.155 170, 49.078 170 C 50 170, 51.344 170.709, 52.063 171.576 C 53.147 172.883, 53.126 173.308, 51.936 174.061 C 50.989 174.660, 50.915 174.975, 51.719 174.985 C 52.389 174.993, 52.678 175.675, 52.362 176.500 C 52.045 177.326, 52.332 178, 53 178 C 53.668 178, 53.971 178.632, 53.675 179.404 C 53.287 180.417, 53.835 180.732, 55.638 180.534 C 57.416 180.339, 57.830 180.570, 57.070 181.330 C 56.482 181.918, 56 182.822, 56 183.337 C 56 184.166, 61.687 179.524, 69 172.728 C 70.975 170.892, 78.447 165.140, 79.769 164.438 C 79.917 164.359, 78.288 162.380, 76.148 160.039 C 72.169 155.685, 63.895 140.371, 63.484 136.598 C 63.358 135.444, 63.198 134.012, 63.128 133.416 C 63.057 132.820, 60.452 130.578, 57.338 128.433 C 54.224 126.288, 51.154 124.011, 50.515 123.372 C 49.633 122.490, 47.567 123.538, 41.927 127.727 M 40.559 129.532 C 39.491 130.339, 39.099 131, 39.686 131 C 40.274 131, 41.315 130.325, 42 129.500 C 43.557 127.624, 43.067 127.634, 40.559 129.532 M 41 136 C 41 136.550, 41.477 137, 42.059 137 C 42.641 137, 42.840 136.550, 42.500 136 C 42.160 135.450, 41.684 135, 41.441 135 C 41.198 135, 41 135.450, 41 136 M 217.500 138 C 216.437 139.719, 217.979 141.097, 219.448 139.740 C 220.821 138.472, 220.580 137, 219 137 C 218.515 137, 217.840 137.450, 217.500 138 M 42.454 147.462 C 42.629 149.091, 43.248 150.583, 43.830 150.777 C 44.412 150.971, 44.655 151.735, 44.371 152.474 C 43.914 153.666, 46.479 160, 47.419 160 C 47.621 160, 48.054 159.302, 48.382 158.448 C 48.723 157.558, 48.555 157.157, 47.989 157.507 C 47.445 157.843, 47 157.679, 47 157.142 C 47 156.606, 47.563 155.940, 48.250 155.662 C 49.250 155.259, 49.250 155.142, 48.250 155.079 C 47.535 155.034, 47 153.670, 47 151.893 C 47 149.496, 46.645 148.922, 45.448 149.382 C 44.594 149.709, 44.130 149.599, 44.416 149.136 C 44.702 148.673, 44.306 147.441, 43.537 146.397 C 42.236 144.634, 42.160 144.709, 42.454 147.462 M 191.158 154.881 C 190.173 155.506, 190.480 155.859, 192.317 156.210 C 194.125 156.555, 194.675 156.316, 194.302 155.344 C 193.707 153.793, 193.032 153.694, 191.158 154.881 M 41 159 C 41 159.550, 41.450 160, 42 160 C 42.550 160, 43 159.550, 43 159 C 43 158.450, 42.550 158, 42 158 C 41.450 158, 41 158.450, 41 159 M 185 159.274 C 185 159.791, 184.325 159.955, 183.500 159.638 C 182.675 159.322, 182 159.499, 182 160.031 C 182 161.416, 184.308 161.227, 186.441 159.667 C 188.021 158.512, 188.046 158.333, 186.632 158.333 C 185.735 158.333, 185 158.756, 185 159.274 M 172.390 165.563 C 168.795 170.438, 165.479 173.645, 160.500 177.065 C 155.280 180.651, 154.041 181.870, 154.015 183.441 C 154.007 183.959, 154.661 183.509, 155.468 182.441 C 156.389 181.223, 156.948 180.992, 156.968 181.821 C 156.986 182.548, 156.425 183.718, 155.722 184.421 C 154.684 185.459, 154.182 185.421, 153.056 184.215 C 151.833 182.906, 151.528 182.925, 150.462 184.383 C 149.755 185.350, 148.579 185.776, 147.627 185.410 C 146.698 185.054, 146 185.286, 146 185.952 C 146 186.593, 145.480 186.797, 144.845 186.405 C 144.167 185.985, 143.961 186.128, 144.346 186.752 C 144.707 187.335, 145.962 187.561, 147.135 187.254 C 148.614 186.868, 149.134 187.098, 148.831 188.007 C 148.295 189.615, 144.330 190.342, 143.491 188.986 C 142.654 187.632, 139 187.738, 139 189.117 C 139 189.828, 138.003 189.993, 136.250 189.572 C 134.738 189.208, 132.375 188.741, 131 188.532 C 129.625 188.324, 127.375 187.844, 126 187.466 C 123.544 186.790, 123.553 186.828, 126.504 189.639 C 128.156 191.213, 131.644 194.218, 134.254 196.317 C 136.864 198.416, 139 200.448, 139 200.831 C 139 201.732, 132.444 204.549, 128.219 205.463 L 124.938 206.173 128.869 209.020 C 131.031 210.586, 133.101 212.355, 133.469 212.950 C 133.837 213.546, 134.557 213.774, 135.069 213.457 C 135.581 213.141, 136 213.316, 136 213.847 C 136 214.378, 136.900 214.577, 138 214.290 C 139.100 214.002, 140 214.157, 139.999 214.633 C 139.998 215.110, 144.738 215.407, 150.531 215.293 C 156.325 215.180, 160.829 215.468, 160.540 215.935 C 160.252 216.401, 161.580 216.966, 163.492 217.189 C 165.404 217.412, 167.099 217.202, 167.259 216.722 C 167.419 216.242, 168.889 216.186, 170.525 216.598 L 173.500 217.347 170.500 218.716 L 167.500 220.086 170.500 219.393 C 172.150 219.011, 176.462 218.615, 180.082 218.513 C 183.702 218.410, 187.302 217.994, 188.082 217.589 C 188.862 217.183, 188.622 217.564, 187.548 218.434 C 186.094 219.612, 184.407 219.858, 180.926 219.396 C 177.941 219, 176.008 219.177, 175.569 219.888 C 175.095 220.655, 176.840 221.037, 181.191 221.118 C 184.661 221.184, 187.906 221.161, 188.403 221.067 C 188.900 220.974, 193.062 220.843, 197.653 220.776 C 207.620 220.631, 208.876 219.082, 199.250 218.807 L 192.500 218.615 198.837 218.257 C 202.323 218.061, 205.698 218.311, 206.337 218.813 C 207.520 219.741, 227.576 217.757, 228.736 216.597 C 229.677 215.657, 228.256 214.724, 227.033 215.480 C 226.428 215.854, 222.945 216.352, 219.293 216.586 C 212.548 217.019, 211.189 216.549, 216.436 215.597 C 219.860 214.976, 221.640 213.514, 220.116 212.572 C 219.535 212.212, 217.808 212.555, 216.279 213.333 C 213.277 214.861, 202 216.129, 202 214.939 C 202 214.075, 204.571 213, 206.637 213 C 207.447 213, 210.095 212.096, 212.521 210.990 C 214.947 209.885, 221.110 208.029, 226.216 206.865 C 236.766 204.461, 239.352 203.378, 238.364 201.780 C 237.933 201.083, 238.220 200.870, 239.122 201.217 C 240.255 201.651, 240.485 201.032, 240.177 198.386 C 239.788 195.062, 238 193.533, 238 196.525 C 238 198.654, 232.946 200.510, 231.833 198.789 C 231.162 197.751, 230.825 197.771, 230.102 198.894 C 229.063 200.507, 225.274 200.077, 212.206 196.867 C 205.651 195.257, 203.606 195.082, 202.456 196.037 C 201.486 196.842, 200.583 196.918, 199.750 196.267 C 198.697 195.442, 190.328 193, 188.557 193 C 188.251 193, 188 193.414, 188 193.921 C 188 194.427, 189.426 195.154, 191.168 195.537 C 193.966 196.151, 194.122 196.352, 192.502 197.259 C 190.240 198.525, 176 199.353, 176 198.219 C 176 197.767, 173.467 197.324, 170.370 197.236 C 164.691 197.073, 161.286 196, 166.448 196 C 169.186 196, 169.204 195.960, 167.592 193.500 L 165.954 191 170.227 190.848 C 176.610 190.620, 176.823 190.577, 178.162 189.238 C 178.843 188.557, 180.660 188, 182.200 188 C 183.740 188, 185 187.592, 185 187.094 C 185 186.595, 184.151 186.409, 183.113 186.681 C 182.075 186.952, 180.977 186.771, 180.672 186.279 C 180.368 185.787, 181.904 185.279, 184.086 185.150 C 186.268 185.021, 189.054 184.513, 190.277 184.021 C 192.153 183.266, 191.877 183.116, 188.500 183.055 C 186.300 183.015, 182.196 182.706, 179.381 182.367 L 174.261 181.752 174.496 172.376 C 174.625 167.219, 174.630 163, 174.506 163 C 174.382 163, 173.430 164.153, 172.390 165.563 M 81.249 170.750 C 81.628 175.643, 81.510 176.812, 80.818 175 C 80.294 173.625, 79.826 171.249, 79.779 169.719 L 79.694 166.939 77.252 169.219 C 75.095 171.234, 74.857 172.165, 75.214 177.191 C 75.692 183.910, 74.534 184.045, 73.535 177.387 L 72.840 172.750 69.170 176.223 C 67.152 178.133, 63.800 180.952, 61.723 182.488 C 57.793 185.392, 57.289 186.986, 60.914 185.046 C 62.247 184.332, 63 184.294, 63 184.939 C 63 185.494, 64.440 186.694, 66.201 187.604 C 67.962 188.514, 70.018 189.875, 70.771 190.628 C 71.524 191.381, 73.346 192.294, 74.820 192.657 C 76.294 193.020, 78.850 194.313, 80.500 195.531 C 82.150 196.749, 84.063 197.540, 84.751 197.289 C 85.516 197.010, 85.785 197.396, 85.444 198.285 C 85.096 199.193, 85.657 199.939, 86.943 200.275 C 88.878 200.781, 89.778 203.888, 88.392 205.274 C 87.279 206.388, 84.032 203.666, 85.034 202.460 C 86.081 201.197, 83.707 201.209, 80.715 202.481 C 79.734 202.899, 76.908 202.674, 74.437 201.982 C 71.965 201.290, 69.656 201.011, 69.305 201.362 C 68.287 202.379, 69.308 202.877, 73.319 203.319 C 79.638 204.015, 78.831 205.135, 72.184 204.895 C 68.735 204.770, 65.681 204.293, 65.398 203.834 C 65.114 203.375, 65.696 202.970, 66.691 202.932 C 68.194 202.876, 68.120 202.681, 66.250 201.780 C 65.013 201.183, 64 200.243, 64 199.692 C 64 199.141, 63.132 199.475, 62.072 200.435 C 60.840 201.550, 59.395 201.943, 58.072 201.523 C 56.813 201.123, 56 201.307, 56 201.992 C 56 202.611, 56.450 202.840, 57 202.500 C 57.550 202.160, 58 202.307, 58 202.827 C 58 203.348, 56.626 203.975, 54.947 204.221 C 52.702 204.551, 51.633 204.183, 50.911 202.835 C 50.243 201.586, 48.903 201.042, 46.715 201.132 L 43.500 201.263 47 201.961 C 49.741 202.507, 50.123 202.825, 48.762 203.431 C 46.217 204.564, 39.428 202.656, 39.821 200.918 C 40.079 199.782, 39.890 199.748, 38.871 200.750 C 37.330 202.265, 33.784 202.384, 32.367 200.967 C 31.185 199.785, 28 200.706, 28 202.229 C 28 202.854, 28.531 202.804, 29.380 202.100 C 30.435 201.224, 31.496 201.371, 33.899 202.727 C 36.405 204.143, 37.203 204.238, 37.857 203.203 C 38.515 202.161, 38.920 202.199, 39.911 203.393 C 40.591 204.212, 41.788 204.635, 42.573 204.334 C 43.358 204.032, 44 204.247, 44 204.810 C 44 205.373, 43.438 206.060, 42.750 206.338 C 41.980 206.648, 42.150 206.872, 43.191 206.921 C 44.121 206.964, 45.160 206.550, 45.500 206 C 45.840 205.450, 47.243 205, 48.618 205 C 50.134 205, 50.859 205.420, 50.459 206.067 C 50.096 206.653, 49.563 206.896, 49.273 206.606 C 48.983 206.317, 47.566 206.675, 46.123 207.403 C 44.680 208.130, 42.875 208.504, 42.111 208.233 C 41.260 207.931, 40.993 208.180, 41.422 208.874 C 41.824 209.524, 43.268 209.758, 44.811 209.423 C 46.891 208.971, 47.160 209.080, 46 209.904 C 44.667 210.851, 44.667 210.973, 46 211 C 47.333 211.027, 47.333 211.138, 46 212 C 44.726 212.824, 44.770 212.972, 46.294 212.985 C 47.280 212.993, 48.015 212.438, 47.925 211.750 C 47.590 209.167, 48.042 208, 49.378 208 C 50.135 208, 51.324 207.315, 52.019 206.477 C 52.777 205.564, 54.060 205.202, 55.226 205.572 C 56.467 205.965, 57.959 205.447, 59.351 204.140 C 61.786 201.853, 64.711 202.704, 63.677 205.399 C 63.237 206.545, 61.759 207, 58.472 207 C 55.667 207, 54.122 207.389, 54.500 208 C 54.840 208.550, 54.641 209, 54.059 209 C 53.477 209, 53 208.471, 53 207.825 C 53 207.179, 52.174 207.516, 51.164 208.575 C 49.375 210.450, 49.401 210.545, 52.188 212.250 C 56.006 214.586, 57.258 214.487, 53.686 212.131 L 50.871 210.276 54.061 209.638 C 58.792 208.692, 59.586 208.851, 57.551 210.339 C 55.789 211.627, 55.788 211.705, 57.527 212.372 C 58.521 212.753, 59.756 212.644, 60.272 212.128 C 60.855 211.545, 62.429 211.911, 64.437 213.095 C 66.351 214.225, 68.932 214.852, 70.778 214.637 C 72.651 214.419, 74.084 214.776, 74.374 215.533 C 74.705 216.395, 73.917 216.726, 71.871 216.584 C 70.229 216.470, 68.649 216.758, 68.362 217.224 C 67.743 218.225, 79.619 217.715, 80.636 216.697 C 82.119 215.214, 83.174 216.092, 81.903 217.750 C 81.165 218.713, 81.701 218.488, 83.095 217.250 C 85.828 214.824, 88.633 214.164, 87.348 216.250 C 86.924 216.938, 87.797 216.702, 89.289 215.727 C 90.839 214.713, 92 214.423, 92 215.048 C 92 215.650, 92.707 215.436, 93.571 214.571 C 95.337 212.806, 96.440 212.479, 95.500 214 C 95.160 214.550, 95.336 215, 95.891 215 C 96.446 215, 97.359 214.213, 97.920 213.250 C 98.611 212.063, 98.949 211.942, 98.970 212.872 C 98.994 213.977, 99.292 214.002, 100.495 213.004 C 101.317 212.322, 102.892 212, 103.995 212.288 C 105.098 212.577, 106 212.495, 106 212.106 C 106 210.867, 103.654 209.001, 102.050 208.966 C 101.197 208.947, 98.700 208.063, 96.500 207 C 94.300 205.937, 91.938 205.053, 91.250 205.034 C 89.778 204.994, 89.531 202, 91 202 C 91.550 202, 92 202.450, 92 203 C 92 203.550, 92.338 203.904, 92.750 203.788 C 93.162 203.671, 94.453 204.105, 95.619 204.752 C 96.784 205.400, 98.021 205.645, 98.369 205.298 C 98.716 204.951, 99 205.161, 99 205.766 C 99 206.371, 100.013 207.185, 101.250 207.576 C 102.487 207.968, 104.928 209.375, 106.673 210.704 C 109.175 212.609, 110.562 212.985, 113.237 212.483 C 115.695 212.022, 116.988 212.281, 117.937 213.424 C 120.878 216.967, 123.701 213.127, 121.844 208.108 C 121.395 206.893, 121.392 206.124, 121.837 206.399 C 122.283 206.675, 122.668 202.648, 122.694 197.450 L 122.740 188 120.120 187.829 C 118.679 187.735, 116.764 187.608, 115.865 187.547 C 114.965 187.485, 113.551 186.872, 112.721 186.183 C 111.891 185.494, 108.359 183.549, 104.873 181.860 C 100.071 179.534, 85.779 170.718, 83.196 168.488 C 83.029 168.344, 82.821 167.275, 82.734 166.113 C 82.646 164.951, 82.159 164, 81.650 164 C 81.124 164, 80.952 166.909, 81.249 170.750 M 60 168.059 C 60 168.641, 60.450 168.840, 61 168.500 C 61.550 168.160, 62 167.684, 62 167.441 C 62 167.198, 61.550 167, 61 167 C 60.450 167, 60 167.477, 60 168.059 M 194 173.378 C 194 173.585, 194.761 174.373, 195.692 175.128 C 196.623 175.882, 197.070 175.976, 196.686 175.335 C 196.302 174.695, 196.553 173.943, 197.244 173.664 C 197.935 173.386, 197.488 173.122, 196.250 173.079 C 195.012 173.036, 194 173.170, 194 173.378 M 166.603 174.833 C 166.320 175.292, 166.723 175.667, 167.500 175.667 C 168.277 175.667, 168.680 175.292, 168.397 174.833 C 168.114 174.375, 167.710 174, 167.500 174 C 167.290 174, 166.886 174.375, 166.603 174.833 M 93.418 178.758 C 93.862 179.546, 93.292 180.326, 91.893 180.844 C 90.664 181.299, 90.077 181.930, 90.590 182.247 C 91.103 182.563, 92.393 182.186, 93.457 181.408 C 95.064 180.233, 95.165 179.781, 94.050 178.746 C 92.976 177.750, 92.849 177.753, 93.418 178.758 M 159 184.559 C 159 185.416, 159.457 185.835, 160.016 185.490 C 160.575 185.144, 160.774 184.443, 160.457 183.931 C 159.600 182.544, 159 182.802, 159 184.559 M 177.500 186 C 177.160 186.550, 176.009 187, 174.941 187 C 173.873 187, 173 187.450, 173 188 C 173 188.550, 173.675 189, 174.500 189 C 175.325 189, 176.338 189, 176.750 189 C 177.162 189, 177.507 188.662, 177.515 188.250 C 177.524 187.838, 177.888 186.938, 178.324 186.250 C 178.761 185.563, 178.893 185, 178.618 185 C 178.343 185, 177.840 185.450, 177.500 186 M 98 187.393 C 98 187.609, 98.698 188.054, 99.552 188.382 C 100.442 188.723, 100.843 188.555, 100.493 187.989 C 99.906 187.038, 98 186.583, 98 187.393 M 131.500 191 C 129.572 191.829, 129.579 191.862, 131.691 191.930 C 132.896 191.968, 134.160 191.550, 134.500 191 C 135.231 189.817, 134.252 189.817, 131.500 191 M 140.527 190.956 C 140.202 191.482, 139.163 191.641, 138.218 191.309 C 137.083 190.911, 136.840 191.040, 137.500 191.691 C 138.681 192.856, 151.991 195.342, 152.786 194.547 C 153.087 194.246, 152.406 194, 151.274 194 C 150.141 194, 148.955 193.325, 148.638 192.500 C 148.322 191.675, 147.486 191.007, 146.781 191.015 C 145.872 191.026, 145.935 191.341, 147 192.102 C 148.176 192.942, 147.960 193.050, 146 192.600 C 144.625 192.285, 142.911 192.021, 142.191 192.014 C 141.471 192.006, 141.160 191.550, 141.500 191 C 141.840 190.450, 141.893 190, 141.618 190 C 141.343 190, 140.852 190.430, 140.527 190.956 M 158.500 190.681 C 159.600 190.984, 160.872 191.742, 161.326 192.366 C 161.872 193.115, 162.015 192.991, 161.748 192 C 161.525 191.175, 160.254 190.417, 158.922 190.315 C 157.012 190.170, 156.923 190.247, 158.500 190.681 M 155.399 191.750 C 155.794 192.438, 155.716 193, 155.226 193 C 154.735 193, 154.333 193.632, 154.333 194.405 C 154.333 195.177, 154.889 195.596, 155.568 195.336 C 156.916 194.818, 156.897 192.518, 155.535 191.279 C 155.065 190.851, 155.003 191.063, 155.399 191.750 M 124.717 197.633 C 124.837 200.732, 125.105 203.438, 125.313 203.647 C 125.522 203.855, 128.066 203.258, 130.969 202.321 L 136.245 200.617 133.873 198.752 C 132.568 197.726, 130.216 195.787, 128.647 194.443 C 127.078 193.100, 125.503 192, 125.147 191.999 C 124.791 191.999, 124.598 194.534, 124.717 197.633 M 67 193.885 C 67 194.782, 70.005 196.328, 70.598 195.736 C 70.769 195.564, 70.030 194.875, 68.955 194.204 C 67.880 193.532, 67 193.389, 67 193.885 M 159 194.393 C 159 194.609, 159.675 195.045, 160.500 195.362 C 161.325 195.678, 162 195.501, 162 194.969 C 162 194.436, 161.325 194, 160.500 194 C 159.675 194, 159 194.177, 159 194.393 M 14.774 200.004 C 19.020 202.592, 20.410 202.589, 16.500 200 C 14.850 198.907, 13.050 198.012, 12.500 198.010 C 11.950 198.009, 12.973 198.906, 14.774 200.004 M 21.507 199.989 C 21.157 200.555, 21.558 200.723, 22.448 200.382 C 24.180 199.717, 24.497 199, 23.059 199 C 22.541 199, 21.843 199.445, 21.507 199.989 M 202.250 200.659 C 201.012 200.923, 200 201.831, 200 202.677 C 200 203.686, 200.559 203.999, 201.627 203.590 C 202.521 203.246, 203.792 203.413, 204.451 203.959 C 205.232 204.607, 207.670 204.623, 211.467 204.005 C 214.667 203.485, 217.564 203.231, 217.905 203.441 C 218.246 203.652, 219.599 203.250, 220.911 202.548 L 223.297 201.271 220.201 200.816 C 218.312 200.539, 217.344 200.747, 217.717 201.351 C 218.095 201.963, 217.599 202.049, 216.414 201.576 C 213.971 200.601, 205.187 200.032, 202.250 200.659 M 25 202.500 C 25 203.325, 25.375 204, 25.833 204 C 26.292 204, 26.667 203.325, 26.667 202.500 C 26.667 201.675, 26.292 201, 25.833 201 C 25.375 201, 25 201.675, 25 202.500 M 53.500 202 C 53.840 202.550, 54.316 203, 54.559 203 C 54.802 203, 55 202.550, 55 202 C 55 201.450, 54.523 201, 53.941 201 C 53.359 201, 53.160 201.450, 53.500 202 M 17 204.393 C 17 204.609, 17.698 205.054, 18.552 205.382 C 19.442 205.723, 19.843 205.555, 19.493 204.989 C 18.906 204.038, 17 203.583, 17 204.393 M 22.658 205.449 C 22.287 206.416, 22.582 206.714, 23.545 206.344 C 24.339 206.040, 24.740 205.388, 24.435 204.895 C 23.669 203.655, 23.303 203.769, 22.658 205.449 M 28.053 204.968 C 27.243 205.468, 27.726 205.750, 29.393 205.750 C 32.303 205.750, 32.649 205.463, 30.659 204.700 C 29.922 204.417, 28.749 204.537, 28.053 204.968 M 37.039 207.250 C 39.281 209.340, 40.731 209.586, 39.081 207.597 C 38.187 206.520, 38.216 206.085, 39.208 205.724 C 39.919 205.465, 39.299 205.309, 37.831 205.377 C 35.239 205.496, 35.216 205.551, 37.039 207.250 M 67.510 207.016 C 67.856 207.575, 68.557 207.774, 69.069 207.457 C 70.456 206.600, 70.198 206, 68.441 206 C 67.584 206, 67.165 206.457, 67.510 207.016 M 29 210.094 C 29 210.592, 29.900 211, 31 211 C 32.100 211, 33 210.827, 33 210.617 C 33 210.406, 32.100 209.998, 31 209.710 C 29.900 209.423, 29 209.595, 29 210.094 M 208.813 209.683 C 209.534 209.972, 210.397 209.936, 210.729 209.604 C 211.061 209.272, 210.471 209.036, 209.417 209.079 C 208.252 209.127, 208.015 209.364, 208.813 209.683 M 124.184 212.642 C 124.384 214.315, 125.344 215.594, 126.801 216.129 C 128.441 216.731, 128.899 216.645, 128.394 215.829 C 127.905 215.037, 128.429 214.873, 130.094 215.294 C 132.298 215.852, 132.225 215.655, 129.234 212.952 C 125.196 209.302, 123.773 209.215, 124.184 212.642 M 65.500 212 C 65.160 212.550, 65.359 213, 65.941 213 C 66.523 213, 67 212.550, 67 212 C 67 211.450, 66.802 211, 66.559 211 C 66.316 211, 65.840 211.450, 65.500 212 M 91.613 212.183 C 91.902 212.650, 92.557 212.774, 93.069 212.457 C 94.377 211.649, 94.230 211.333, 92.544 211.333 C 91.743 211.333, 91.324 211.716, 91.613 212.183 M 223.020 212.476 C 222.231 213.426, 222.155 214, 222.819 214 C 224.027 214, 225.436 212.103, 224.743 211.409 C 224.491 211.158, 223.716 211.638, 223.020 212.476 M 226 212 C 226 212.550, 226.873 213, 227.941 213 C 229.009 213, 230.160 213.450, 230.500 214 C 230.840 214.550, 231.602 215, 232.194 215 C 232.786 215, 232.126 214.100, 230.727 213 C 227.969 210.830, 226 210.414, 226 212 M 61 212.941 C 61 213.459, 61.445 214.157, 61.989 214.493 C 62.555 214.843, 62.723 214.442, 62.382 213.552 C 61.717 211.820, 61 211.503, 61 212.941 M 45.750 215.662 C 46.438 215.940, 47.563 215.940, 48.250 215.662 C 48.938 215.385, 48.375 215.158, 47 215.158 C 45.625 215.158, 45.063 215.385, 45.750 215.662 M 53.500 216 C 53.133 216.594, 54.225 216.971, 56.191 216.930 C 58.948 216.871, 59.166 216.716, 57.500 216 C 54.787 214.834, 54.220 214.834, 53.500 216 M 63.507 215.989 C 63.157 216.555, 63.558 216.723, 64.448 216.382 C 66.180 215.717, 66.497 215, 65.059 215 C 64.541 215, 63.843 215.445, 63.507 215.989 M 60 217.059 C 60 217.641, 60.450 217.840, 61 217.500 C 61.550 217.160, 62 216.684, 62 216.441 C 62 216.198, 61.550 216, 61 216 C 60.450 216, 60 216.477, 60 217.059 M 142.341 216.674 C 143.293 217.627, 147.948 217.725, 147.364 216.780 C 147.099 216.351, 145.709 216, 144.274 216 C 142.840 216, 141.970 216.303, 142.341 216.674 M 149.658 217.550 C 149.937 218.278, 150.803 218.629, 151.583 218.330 C 153.461 217.609, 153.373 217.331, 151.075 216.730 C 149.761 216.386, 149.311 216.646, 149.658 217.550 M 155 217 C 154.099 217.582, 153.975 217.975, 154.691 217.985 C 155.346 217.993, 156.160 217.550, 156.500 217 C 157.267 215.758, 156.921 215.758, 155 217" stroke="none" fill="#3871ad" fill-rule="evenodd"/></svg>